<?xml version="1.0" encoding="UTF-8" standalone="no"?>
<!DOCTYPE svg PUBLIC "-//W3C//DTD SVG 1.1//EN" "http://www.w3.org/Graphics/SVG/1.1/DTD/svg11.dtd">
<svg width="100%" height="100%" viewBox="0 0 1818 700" version="1.1" xmlns="http://www.w3.org/2000/svg" xmlns:xlink="http://www.w3.org/1999/xlink" xml:space="preserve" xmlns:serif="http://www.serif.com/" style="fill-rule:evenodd;clip-rule:evenodd;stroke-miterlimit:8;">
    <g transform="matrix(0.000437445,0,0,-0.000437445,16.7964,233.63)">
        <path d="M0,0L0,495681L495681,495681" style="fill:none;fill-rule:nonzero;stroke:rgb(165,164,164);stroke-width:9525px;"/>
    </g>
    <g transform="matrix(5.55556,0,0,5.55556,-2491.43,-985.315)">
        <path d="M470.788,239.191L481.705,239.191C484.126,239.191 486.454,238.743 488.688,237.847C491.007,236.918 493.021,235.673 494.731,234.113C496.424,232.52 497.769,230.612 498.768,228.388C499.716,226.264 500.19,224.032 500.19,221.692L500.19,220.995C500.19,218.655 499.716,216.423 498.768,214.299C497.769,212.075 496.419,210.175 494.718,208.598C493.017,207.022 491.007,205.769 488.688,204.839C486.437,203.943 484.109,203.495 481.705,203.495L470.788,203.495L470.788,239.191ZM474.139,236.08L474.139,206.607L481.731,206.607C483.745,206.59 485.666,206.947 487.495,207.677C489.407,208.441 491.053,209.478 492.433,210.789C493.813,212.1 494.9,213.676 495.696,215.518C496.457,217.278 496.838,219.136 496.838,221.094L496.838,221.592C496.838,223.55 496.457,225.409 495.696,227.168C494.9,229.01 493.813,230.587 492.433,231.898C491.053,233.209 489.407,234.246 487.495,235.009C485.666,235.74 483.745,236.096 481.731,236.08L474.139,236.08Z" style="fill:white;fill-rule:nonzero;stroke:white;stroke-width:1.16px;stroke-miterlimit:10;"/>
        <path d="M504.04,207.179C504.04,207.777 504.243,208.275 504.65,208.673C505.056,209.071 505.564,209.27 506.173,209.27C506.783,209.27 507.29,209.071 507.697,208.673C508.103,208.275 508.306,207.777 508.306,207.179C508.306,206.599 508.099,206.113 507.684,205.723C507.269,205.333 506.766,205.138 506.173,205.138C505.581,205.138 505.077,205.333 504.662,205.723C504.248,206.113 504.04,206.599 504.04,207.179ZM504.523,239.191L507.849,239.191L507.849,213.701L504.523,213.701L504.523,239.191Z" style="fill:white;fill-rule:nonzero;stroke:white;stroke-width:1.16px;stroke-miterlimit:10;"/>
        <path d="M512.436,239.191L515.787,239.191L515.787,225.948C515.787,222.928 516.431,220.626 517.717,219.041C519.003,217.456 520.798,216.663 523.1,216.663C523.523,216.663 523.785,216.68 523.887,216.713L523.887,213.602C523.785,213.568 523.523,213.552 523.1,213.552C519.782,213.552 517.175,214.61 515.28,216.726C513.384,218.842 512.436,221.916 512.436,225.948L512.436,239.191Z" style="fill:white;fill-rule:nonzero;stroke:white;stroke-width:1.16px;stroke-miterlimit:10;"/>
        <path d="M527.763,226.496C527.763,228.869 528.347,231.056 529.515,233.055C530.683,235.055 532.282,236.644 534.314,237.822C536.345,239.001 538.579,239.59 541.017,239.59C543.505,239.59 545.837,238.98 548.012,237.76C550.187,236.54 551.884,234.893 553.103,232.819L549.04,232.819C548.092,233.964 546.912,234.86 545.498,235.507C544.085,236.155 542.574,236.478 540.966,236.478C538.291,236.478 536.027,235.611 534.174,233.877C532.32,232.143 531.343,230.006 531.241,227.467L554.144,227.467C554.178,227.334 554.194,227.027 554.194,226.546L554.194,226.098C554.127,223.642 553.479,221.43 552.252,219.464C551.025,217.497 549.421,215.979 547.441,214.909C545.46,213.838 543.302,213.303 540.966,213.303L540.687,213.303C538.401,213.303 536.269,213.884 534.288,215.045C532.223,216.257 530.615,217.883 529.464,219.924C528.33,221.899 527.763,224.023 527.763,226.297L527.763,226.496ZM531.241,224.704C531.648,222.314 532.756,220.348 534.568,218.804C536.429,217.211 538.579,216.415 541.017,216.415C543.437,216.415 545.553,217.211 547.364,218.804C549.142,220.381 550.234,222.347 550.64,224.704L531.241,224.704Z" style="fill:white;fill-rule:nonzero;stroke:white;stroke-width:1.16px;stroke-miterlimit:10;"/>
        <path d="M557.791,226.222L557.791,226.67C557.791,228.346 558.138,229.965 558.832,231.524C559.543,233.151 560.508,234.561 561.727,235.756C562.945,236.951 564.384,237.897 566.043,238.594C567.634,239.258 569.285,239.59 570.994,239.59L571.223,239.59C573.796,239.59 576.153,238.934 578.294,237.623C580.435,236.312 582.048,234.561 583.131,232.371L579.424,232.371C578.459,233.649 577.266,234.653 575.844,235.383C574.422,236.113 572.898,236.478 571.273,236.478C568.481,236.478 566.09,235.495 564.101,233.528C562.112,231.562 561.117,229.201 561.117,226.446C561.117,223.658 562.107,221.289 564.088,219.339C566.068,217.39 568.464,216.415 571.273,216.415C572.932,216.415 574.464,216.771 575.869,217.485C577.274,218.199 578.459,219.194 579.424,220.472L583.004,220.472C581.921,218.298 580.321,216.56 578.205,215.257C576.089,213.954 573.762,213.303 571.223,213.303L570.994,213.303C569.285,213.286 567.634,213.618 566.043,214.299C564.384,214.996 562.945,215.942 561.727,217.136C560.508,218.331 559.543,219.742 558.832,221.368C558.155,222.928 557.808,224.546 557.791,226.222Z" style="fill:white;fill-rule:nonzero;stroke:white;stroke-width:1.16px;stroke-miterlimit:10;"/>
        <path d="M586.778,226.222L586.778,226.67C586.778,228.346 587.125,229.965 587.819,231.524C588.53,233.151 589.495,234.561 590.714,235.756C591.933,236.951 593.371,237.897 595.03,238.594C596.621,239.258 598.272,239.59 599.981,239.59L600.21,239.59C602.783,239.59 605.14,238.934 607.281,237.623C609.422,236.312 611.035,234.561 612.118,232.371L608.411,232.371C607.446,233.649 606.253,234.653 604.831,235.383C603.409,236.113 601.886,236.478 600.261,236.478C597.468,236.478 595.077,235.495 593.088,233.528C591.099,231.562 590.104,229.201 590.104,226.446C590.104,223.658 591.095,221.289 593.075,219.339C595.056,217.39 597.451,216.415 600.261,216.415C601.92,216.415 603.451,216.771 604.856,217.485C606.261,218.199 607.446,219.194 608.411,220.472L611.991,220.472C610.908,218.298 609.308,216.56 607.192,215.257C605.076,213.954 602.749,213.303 600.21,213.303L599.981,213.303C598.272,213.286 596.621,213.618 595.03,214.299C593.371,214.996 591.933,215.942 590.714,217.136C589.495,218.331 588.53,219.742 587.819,221.368C587.142,222.928 586.795,224.546 586.778,226.222Z" style="fill:white;fill-rule:nonzero;stroke:white;stroke-width:1.16px;stroke-miterlimit:10;"/>
        <path d="M616.019,207.179C616.019,207.777 616.223,208.275 616.629,208.673C617.035,209.071 617.543,209.27 618.152,209.27C618.762,209.27 619.269,209.071 619.676,208.673C620.082,208.275 620.285,207.777 620.285,207.179C620.285,206.599 620.078,206.113 619.663,205.723C619.248,205.333 618.745,205.138 618.152,205.138C617.56,205.138 617.056,205.333 616.641,205.723C616.227,206.113 616.019,206.599 616.019,207.179ZM616.502,239.191L619.828,239.191L619.828,213.701L616.502,213.701L616.502,239.191Z" style="fill:white;fill-rule:nonzero;stroke:white;stroke-width:1.16px;stroke-miterlimit:10;"/>
        <path d="M624.161,226.446C624.127,228.189 624.47,229.877 625.189,231.512C625.909,233.147 626.878,234.557 628.096,235.744C629.315,236.93 630.758,237.876 632.426,238.582C634.093,239.287 635.815,239.623 637.593,239.59C639.37,239.623 641.092,239.287 642.76,238.582C644.427,237.876 645.866,236.93 647.076,235.744C648.286,234.557 649.251,233.147 649.97,231.512C650.69,229.877 651.033,228.189 650.999,226.446C651.033,224.704 650.69,223.015 649.97,221.381C649.251,219.746 648.286,218.335 647.076,217.149C645.866,215.962 644.427,215.016 642.76,214.311C641.092,213.606 639.37,213.27 637.593,213.303C635.815,213.27 634.093,213.606 632.426,214.311C630.758,215.016 629.315,215.962 628.096,217.149C626.878,218.335 625.909,219.746 625.189,221.381C624.47,223.015 624.127,224.704 624.161,226.446ZM627.487,226.446C627.487,223.658 628.477,221.289 630.458,219.339C632.438,217.39 634.833,216.415 637.643,216.415C640.453,216.415 642.827,217.385 644.765,219.327C646.704,221.269 647.673,223.642 647.673,226.446C647.673,229.251 646.704,231.624 644.765,233.566C642.827,235.507 640.453,236.478 637.643,236.478C634.85,236.478 632.459,235.495 630.47,233.528C628.482,231.562 627.487,229.201 627.487,226.446ZM635.714,210.59L638.456,210.59L642.01,205.536L638.989,205.536L635.714,210.59Z" style="fill:white;fill-rule:nonzero;stroke:white;stroke-width:1.16px;stroke-miterlimit:10;"/>
        <path d="M654.875,239.191L658.226,239.191L658.226,225.774C658.226,222.737 658.941,220.418 660.372,218.817C661.802,217.215 663.787,216.415 666.326,216.415C668.865,216.415 670.85,217.215 672.28,218.817C673.71,220.418 674.425,222.737 674.425,225.774L674.425,239.191L677.777,239.191L677.777,225.774C677.777,221.708 676.753,218.613 674.705,216.489C672.657,214.365 669.864,213.303 666.326,213.303C662.788,213.303 659.995,214.365 657.947,216.489C655.899,218.613 654.875,221.708 654.875,225.774L654.875,239.191Z" style="fill:white;fill-rule:nonzero;stroke:white;stroke-width:1.16px;stroke-miterlimit:10;"/>
        <path d="M470.534,274.222L470.534,274.67C470.534,276.346 470.881,277.965 471.575,279.524C472.286,281.151 473.25,282.561 474.469,283.756C475.688,284.951 477.127,285.897 478.786,286.594C480.377,287.258 482.027,287.59 483.737,287.59L484.194,287.59C485.886,287.606 487.528,287.274 489.12,286.594C490.778,285.897 492.209,284.951 493.411,283.756C494.629,282.561 495.594,281.151 496.305,279.524C496.982,277.965 497.321,276.355 497.321,274.695L497.321,251.495L493.995,251.495L493.995,266.754C492.911,265.078 491.489,263.751 489.729,262.772C487.969,261.793 486.047,261.303 483.965,261.303L483.737,261.303C482.027,261.286 480.377,261.618 478.786,262.299C477.127,262.996 475.688,263.942 474.469,265.136C473.25,266.331 472.286,267.742 471.575,269.368C470.898,270.928 470.551,272.546 470.534,274.222ZM473.86,274.446C473.86,271.692 474.85,269.331 476.83,267.364C478.811,265.398 481.189,264.415 483.965,264.415C486.792,264.415 489.179,265.385 491.125,267.327C493.072,269.269 494.045,271.642 494.045,274.446C494.045,277.251 493.076,279.624 491.138,281.566C489.2,283.507 486.809,284.478 483.965,284.478C481.138,284.478 478.747,283.507 476.792,281.566C474.837,279.624 473.86,277.251 473.86,274.446Z" style="fill:white;fill-rule:nonzero;stroke:white;stroke-width:1.16px;stroke-miterlimit:10;"/>
        <path d="M501.151,274.496C501.151,276.869 501.735,279.056 502.903,281.055C504.07,283.055 505.67,284.644 507.701,285.822C509.733,287.001 511.967,287.59 514.404,287.59C516.893,287.59 519.224,286.98 521.4,285.76C523.575,284.54 525.272,282.893 526.49,280.819L522.428,280.819C521.48,281.964 520.299,282.86 518.886,283.507C517.473,284.155 515.962,284.478 514.354,284.478C511.679,284.478 509.415,283.611 507.562,281.877C505.708,280.143 504.731,278.006 504.629,275.467L527.531,275.467C527.565,275.334 527.582,275.027 527.582,274.546L527.582,274.098C527.514,271.642 526.867,269.43 525.64,267.464C524.413,265.497 522.809,263.979 520.828,262.909C518.848,261.838 516.69,261.303 514.354,261.303L514.074,261.303C511.789,261.303 509.656,261.884 507.676,263.045C505.611,264.257 504.003,265.883 502.852,267.924C501.718,269.899 501.151,272.023 501.151,274.297L501.151,274.496ZM504.629,272.704C505.035,270.314 506.144,268.348 507.955,266.804C509.817,265.211 511.967,264.415 514.404,264.415C516.825,264.415 518.941,265.211 520.752,266.804C522.529,268.381 523.621,270.347 524.028,272.704L504.629,272.704Z" style="fill:white;fill-rule:nonzero;stroke:white;stroke-width:1.16px;stroke-miterlimit:10;"/>
        <path d="M545.652,287.191L549.004,287.191L549.004,274.098L557.408,274.098C558.982,274.098 560.489,273.791 561.927,273.177C563.366,272.563 564.61,271.737 565.66,270.7C566.709,269.663 567.547,268.435 568.173,267.016C568.8,265.597 569.113,264.116 569.113,262.572C569.113,260.515 568.588,258.635 567.539,256.934C566.489,255.233 565.067,253.902 563.273,252.939C561.479,251.976 559.524,251.495 557.408,251.495L545.652,251.495L545.652,287.191ZM549.004,271.185L549.004,254.408L557.408,254.408C559.761,254.408 561.745,255.196 563.362,256.772C564.978,258.349 565.787,260.282 565.787,262.572C565.787,264.946 564.978,266.974 563.362,268.659C561.745,270.343 559.761,271.185 557.408,271.185L549.004,271.185Z" style="fill:white;fill-rule:nonzero;stroke:white;stroke-width:1.16px;stroke-miterlimit:10;"/>
        <path d="M573.089,287.191L576.44,287.191L576.44,273.948C576.44,270.928 577.083,268.626 578.37,267.041C579.656,265.456 581.451,264.663 583.753,264.663C584.176,264.663 584.438,264.68 584.54,264.713L584.54,261.602C584.438,261.568 584.176,261.552 583.753,261.552C580.435,261.552 577.828,262.61 575.932,264.726C574.037,266.842 573.089,269.916 573.089,273.948L573.089,287.191Z" style="fill:white;fill-rule:nonzero;stroke:white;stroke-width:1.16px;stroke-miterlimit:10;"/>
        <path d="M588.555,274.222L588.555,274.67C588.555,276.346 588.902,277.965 589.596,279.524C590.307,281.151 591.272,282.561 592.49,283.756C593.709,284.951 595.148,285.897 596.807,286.594C598.398,287.258 600.048,287.59 601.758,287.59L602.215,287.59C603.925,287.606 605.575,287.274 607.166,286.594C608.825,285.897 610.264,284.951 611.483,283.756C612.701,282.561 613.666,281.151 614.377,279.524C615.054,277.965 615.393,276.346 615.393,274.67L615.393,274.222C615.41,272.546 615.071,270.928 614.377,269.368C613.666,267.742 612.701,266.331 611.483,265.136C610.264,263.942 608.825,262.996 607.166,262.299C605.575,261.635 603.925,261.303 602.215,261.303L601.758,261.303C600.048,261.286 598.398,261.618 596.807,262.299C595.148,262.996 593.709,263.942 592.49,265.136C591.272,266.331 590.307,267.742 589.596,269.368C588.919,270.928 588.572,272.546 588.555,274.222ZM591.881,274.446C591.881,271.658 592.871,269.289 594.852,267.339C596.832,265.39 599.227,264.415 602.037,264.415C604.847,264.415 607.221,265.385 609.159,267.327C611.097,269.269 612.067,271.642 612.067,274.446C612.067,277.251 611.097,279.624 609.159,281.566C607.221,283.507 604.847,284.478 602.037,284.478C599.244,284.478 596.853,283.495 594.864,281.528C592.875,279.562 591.881,277.201 591.881,274.446Z" style="fill:white;fill-rule:nonzero;stroke:white;stroke-width:1.16px;stroke-miterlimit:10;"/>
        <path d="M619.251,275.118C619.251,279.184 620.275,282.279 622.324,284.403C624.372,286.528 627.165,287.59 630.702,287.59C632.446,287.59 634.016,287.245 635.412,286.557C636.809,285.868 637.939,284.876 638.802,283.582L638.802,286.221C638.802,288.478 638.04,290.386 636.517,291.946C634.993,293.506 633.055,294.286 630.702,294.286C629.145,294.286 627.744,293.9 626.5,293.128C625.256,292.357 624.279,291.299 623.568,289.955L619.886,289.955C620.766,292.228 622.167,294.037 624.088,295.381C626.009,296.725 628.214,297.397 630.702,297.397C633.969,297.397 636.695,296.298 638.878,294.099C641.062,291.9 642.154,289.175 642.154,285.922L642.154,261.701L638.802,261.701L638.802,275.766C638.802,278.537 638.07,280.682 636.606,282.2C635.142,283.719 633.174,284.478 630.702,284.478C628.163,284.478 626.179,283.677 624.748,282.076C623.318,280.475 622.603,278.155 622.603,275.118L622.603,261.701L619.251,261.701L619.251,275.118Z" style="fill:white;fill-rule:nonzero;stroke:white;stroke-width:1.16px;stroke-miterlimit:10;"/>
        <path d="M646.012,274.496C646.012,276.869 646.596,279.056 647.764,281.055C648.932,283.055 650.532,284.644 652.563,285.822C654.594,287.001 656.829,287.59 659.266,287.59C661.754,287.59 664.086,286.98 666.261,285.76C668.436,284.54 670.133,282.893 671.352,280.819L667.29,280.819C666.342,281.964 665.161,282.86 663.748,283.507C662.334,284.155 660.823,284.478 659.215,284.478C656.541,284.478 654.277,283.611 652.423,281.877C650.57,280.143 649.592,278.006 649.491,275.467L672.393,275.467C672.427,275.334 672.444,275.027 672.444,274.546L672.444,274.098C672.376,271.642 671.729,269.43 670.502,267.464C669.274,265.497 667.67,263.979 665.69,262.909C663.71,261.838 661.551,261.303 659.215,261.303L658.936,261.303C656.651,261.303 654.518,261.884 652.538,263.045C650.473,264.257 648.864,265.883 647.713,267.924C646.579,269.899 646.012,272.023 646.012,274.297L646.012,274.496ZM649.491,272.704C649.897,270.314 651.006,268.348 652.817,266.804C654.679,265.211 656.829,264.415 659.266,264.415C661.687,264.415 663.803,265.211 665.614,266.804C667.391,268.381 668.483,270.347 668.889,272.704L649.491,272.704Z" style="fill:white;fill-rule:nonzero;stroke:white;stroke-width:1.16px;stroke-miterlimit:10;"/>
        <path d="M676.023,274.222L676.023,274.67C676.023,276.346 676.37,277.965 677.064,279.524C677.775,281.151 678.74,282.561 679.959,283.756C681.177,284.951 682.616,285.897 684.275,286.594C685.866,287.258 687.517,287.59 689.226,287.59L689.455,287.59C692.028,287.59 694.385,286.934 696.526,285.623C698.667,284.312 700.28,282.561 701.363,280.371L697.656,280.371C696.691,281.649 695.498,282.653 694.076,283.383C692.654,284.113 691.131,284.478 689.506,284.478C686.713,284.478 684.322,283.495 682.333,281.528C680.344,279.562 679.349,277.201 679.349,274.446C679.349,271.658 680.34,269.289 682.32,267.339C684.301,265.39 686.696,264.415 689.506,264.415C691.164,264.415 692.696,264.771 694.101,265.485C695.506,266.199 696.691,267.194 697.656,268.472L701.236,268.472C700.153,266.298 698.553,264.56 696.437,263.257C694.321,261.954 691.994,261.303 689.455,261.303L689.226,261.303C687.517,261.286 685.866,261.618 684.275,262.299C682.616,262.996 681.177,263.942 679.959,265.136C678.74,266.331 677.775,267.742 677.064,269.368C676.387,270.928 676.04,272.546 676.023,274.222Z" style="fill:white;fill-rule:nonzero;stroke:white;stroke-width:1.16px;stroke-miterlimit:10;"/>
        <path d="M704.536,264.813L708.421,264.813L708.421,275.168C708.421,278.852 709.288,281.723 711.024,283.781C712.759,285.839 715.183,287.025 718.298,287.341L718.298,284.179C716.182,283.864 714.561,282.943 713.436,281.416C712.31,279.89 711.747,277.774 711.747,275.069L711.747,264.813L718.298,264.813L718.298,261.701L711.747,261.701L711.747,253.636L708.421,253.636L708.421,261.701L704.536,261.701L704.536,264.813Z" style="fill:white;fill-rule:nonzero;stroke:white;stroke-width:1.16px;stroke-miterlimit:10;"/>
        <path d="M721.19,274.222L721.19,274.67C721.19,276.346 721.537,277.965 722.231,279.524C722.942,281.151 723.907,282.561 725.126,283.756C726.344,284.951 727.783,285.897 729.442,286.594C731.033,287.258 732.684,287.59 734.393,287.59L734.85,287.59C736.56,287.606 738.21,287.274 739.801,286.594C741.46,285.897 742.899,284.951 744.118,283.756C745.337,282.561 746.301,281.151 747.012,279.524C747.689,277.965 748.028,276.346 748.028,274.67L748.028,274.222C748.045,272.546 747.706,270.928 747.012,269.368C746.301,267.742 745.337,266.331 744.118,265.136C742.899,263.942 741.46,262.996 739.801,262.299C738.21,261.635 736.56,261.303 734.85,261.303L734.393,261.303C732.684,261.286 731.033,261.618 729.442,262.299C727.783,262.996 726.344,263.942 725.126,265.136C723.907,266.331 722.942,267.742 722.231,269.368C721.554,270.928 721.207,272.546 721.19,274.222ZM724.516,274.446C724.516,271.658 725.506,269.289 727.487,267.339C729.467,265.39 731.863,264.415 734.672,264.415C737.482,264.415 739.856,265.385 741.795,267.327C743.733,269.269 744.702,271.642 744.702,274.446C744.702,277.251 743.733,279.624 741.795,281.566C739.856,283.507 737.482,284.478 734.672,284.478C731.879,284.478 729.489,283.495 727.5,281.528C725.511,279.562 724.516,277.201 724.516,274.446Z" style="fill:white;fill-rule:nonzero;stroke:white;stroke-width:1.16px;stroke-miterlimit:10;"/>
        <path d="M751.446,280.147C751.446,282.371 752.326,284.167 754.086,285.536C755.847,286.905 757.996,287.59 760.535,287.59C763.311,287.59 765.533,286.955 767.2,285.685C768.868,284.416 769.701,282.661 769.701,280.421C769.701,277.251 768.364,275.143 765.69,274.098C764.132,273.467 762.694,272.986 761.373,272.654C760.815,272.505 760.434,272.405 760.231,272.355C760.028,272.306 759.702,272.218 759.253,272.094C758.805,271.97 758.5,271.874 758.339,271.808C758.178,271.741 757.929,271.642 757.59,271.509C757.252,271.376 757.027,271.26 756.917,271.16C756.807,271.061 756.638,270.928 756.409,270.762C756.181,270.596 756.024,270.434 755.94,270.277C755.855,270.119 755.758,269.928 755.648,269.704C755.538,269.48 755.457,269.244 755.406,268.995C755.356,268.746 755.322,268.472 755.305,268.173C755.305,266.962 755.775,265.995 756.714,265.273C757.654,264.551 758.877,264.191 760.383,264.191C761.89,264.191 763.134,264.556 764.115,265.286C765.097,266.016 765.588,266.995 765.588,268.223L768.813,268.223C768.813,266.116 768.021,264.435 766.439,263.182C764.856,261.929 762.837,261.303 760.383,261.303C757.962,261.303 755.957,261.909 754.365,263.12C752.757,264.348 751.953,265.966 751.953,267.974C751.953,270.862 753.223,272.828 755.762,273.874C756.93,274.355 758.318,274.803 759.926,275.218C761.517,275.633 762.702,276.01 763.481,276.351C764.259,276.691 764.928,277.16 765.487,277.757C766.079,278.388 766.375,279.217 766.375,280.246C766.375,281.657 765.872,282.752 764.864,283.532C763.857,284.312 762.431,284.702 760.586,284.702C758.86,284.702 757.442,284.287 756.333,283.458C755.225,282.628 754.67,281.524 754.67,280.147L751.446,280.147Z" style="fill:white;fill-rule:nonzero;stroke:white;stroke-width:1.16px;stroke-miterlimit:10;"/>
    </g>
</svg>
