<?xml version="1.0" encoding="UTF-8" standalone="no"?>
<!DOCTYPE svg PUBLIC "-//W3C//DTD SVG 1.1//EN" "http://www.w3.org/Graphics/SVG/1.1/DTD/svg11.dtd">
<svg width="100%" height="100%" viewBox="0 0 1067 397" version="1.1" xmlns="http://www.w3.org/2000/svg" xmlns:xlink="http://www.w3.org/1999/xlink" xml:space="preserve" xmlns:serif="http://www.serif.com/" style="fill-rule:evenodd;clip-rule:evenodd;stroke-miterlimit:10;">
    <g transform="matrix(5.55556,0,0,5.55556,-4127.9,-1838.89)">
        <g transform="matrix(1.02,0,0,1,-14.9331,0)">
            <g>
                <g transform="matrix(1,0,0,1,746.649,363.389)">
                    <path d="M0.977,-7.602C0.977,-5.968 1.407,-4.545 2.269,-3.332C3.131,-2.119 4.267,-1.21 5.678,-0.603C7.088,0.003 8.674,0.306 10.436,0.306C12.146,0.306 13.72,-0.029 15.156,-0.699C16.592,-1.369 17.738,-2.314 18.593,-3.533C19.448,-4.752 19.876,-6.108 19.876,-7.602L17.368,-7.602C17.368,-6.057 16.697,-4.752 15.357,-3.686C14.017,-2.62 12.376,-2.087 10.436,-2.087C8.342,-2.087 6.66,-2.572 5.39,-3.542C4.12,-4.513 3.485,-5.866 3.485,-7.602C3.485,-9.3 4.059,-10.608 5.208,-11.527C5.923,-12.064 6.619,-12.523 7.296,-12.906C8.483,-13.595 9.373,-14.208 9.967,-14.744C10.56,-15.28 11.068,-16.014 11.489,-16.946C11.961,-17.942 12.198,-19.251 12.198,-20.872L9.689,-20.872C9.638,-20.093 9.536,-19.41 9.383,-18.823C9.23,-18.236 9.057,-17.754 8.866,-17.377C8.674,-17.001 8.371,-16.627 7.956,-16.257C7.541,-15.887 7.174,-15.6 6.855,-15.395C6.536,-15.191 6.045,-14.897 5.381,-14.515C4.832,-14.195 4.404,-13.934 4.098,-13.729C3.791,-13.525 3.45,-13.27 3.073,-12.963C2.697,-12.657 2.406,-12.351 2.202,-12.044C1.998,-11.738 1.794,-11.371 1.589,-10.943C1.385,-10.516 1.238,-10.027 1.149,-9.478C1.06,-8.93 1.002,-8.304 0.977,-7.602ZM9.727,-23.648L12.236,-23.648L12.236,-27.459L9.727,-27.459L9.727,-23.648Z" style="fill:white;fill-rule:nonzero;stroke:white;stroke-width:0.91px;"/>
                </g>
                <g transform="matrix(1,0,0,1,768.098,363.389)">
                    <path d="M0.977,-13.998L0.977,-13.461C0.977,-11.661 1.328,-9.932 2.03,-8.272C2.783,-6.523 3.798,-5.017 5.074,-3.753C6.351,-2.489 7.864,-1.487 9.613,-0.747C11.285,-0.045 13.015,0.306 14.802,0.306L15.089,0.306C18.089,0.306 20.795,-0.53 23.208,-2.202L25.716,0.383L27.535,-1.206L25.104,-3.772C26.418,-5.049 27.433,-6.546 28.148,-8.263C28.863,-9.98 29.221,-11.802 29.221,-13.729L29.221,-13.998C29.221,-15.797 28.863,-17.527 28.148,-19.187C27.395,-20.936 26.38,-22.442 25.104,-23.706C23.827,-24.97 22.314,-25.972 20.565,-26.712C18.893,-27.414 17.163,-27.765 15.376,-27.765L14.802,-27.765C13.015,-27.765 11.285,-27.414 9.613,-26.712C7.864,-25.972 6.351,-24.97 5.074,-23.706C3.798,-22.442 2.783,-20.936 2.03,-19.187C1.328,-17.527 0.977,-15.797 0.977,-13.998ZM3.485,-13.519L3.485,-13.94C3.485,-15.957 3.996,-17.834 5.017,-19.57C6.064,-21.357 7.487,-22.767 9.287,-23.802C11.023,-24.797 12.881,-25.295 14.859,-25.295L15.28,-25.295C16.774,-25.295 18.217,-25.008 19.608,-24.433C21.051,-23.821 22.295,-22.997 23.342,-21.963C24.389,-20.929 25.218,-19.691 25.831,-18.248C26.418,-16.87 26.712,-15.427 26.712,-13.921L26.712,-13.729C26.712,-10.564 25.614,-7.883 23.419,-5.687L20.738,-8.464L18.9,-6.817L21.523,-4.117C19.646,-2.815 17.502,-2.164 15.089,-2.164L14.859,-2.164C12.881,-2.164 11.023,-2.662 9.287,-3.657C7.487,-4.691 6.064,-6.102 5.017,-7.889C3.996,-9.625 3.485,-11.502 3.485,-13.519Z" style="fill:white;fill-rule:nonzero;stroke:white;stroke-width:0.91px;"/>
                    <path d="M31.346,-9.287C31.346,-6.159 32.118,-3.779 33.663,-2.145C35.208,-0.511 37.314,0.306 39.982,0.306C42.65,0.306 44.756,-0.511 46.301,-2.145C47.846,-3.779 48.618,-6.159 48.618,-9.287L48.618,-19.608L46.09,-19.608L46.09,-9.287C46.09,-6.951 45.551,-5.167 44.472,-3.935C43.394,-2.703 41.897,-2.087 39.982,-2.087C38.067,-2.087 36.57,-2.703 35.492,-3.935C34.413,-5.167 33.874,-6.951 33.874,-9.287L33.874,-19.608L31.346,-19.608L31.346,-9.287Z" style="fill:white;fill-rule:nonzero;stroke:white;stroke-width:0.91px;"/>
                    <path d="M50.763,-9.766C50.763,-7.94 51.203,-6.258 52.084,-4.72C52.965,-3.182 54.171,-1.96 55.703,-1.053C57.235,-0.147 58.92,0.306 60.758,0.306C62.635,0.306 64.393,-0.163 66.033,-1.101C67.674,-2.039 68.954,-3.306 69.873,-4.902L66.809,-4.902C66.094,-4.021 65.204,-3.332 64.138,-2.834C63.072,-2.336 61.932,-2.087 60.72,-2.087C58.703,-2.087 56.995,-2.754 55.597,-4.088C54.2,-5.422 53.462,-7.066 53.386,-9.019L70.658,-9.019C70.683,-9.121 70.696,-9.357 70.696,-9.727L70.696,-10.072C70.645,-11.961 70.157,-13.662 69.231,-15.175C68.306,-16.688 67.096,-17.856 65.603,-18.679C64.109,-19.503 62.481,-19.914 60.72,-19.914L60.509,-19.914C58.786,-19.914 57.177,-19.468 55.684,-18.574C54.126,-17.642 52.914,-16.391 52.045,-14.821C51.19,-13.302 50.763,-11.668 50.763,-9.919L50.763,-9.766ZM53.386,-11.144C53.692,-12.983 54.528,-14.495 55.894,-15.683C57.299,-16.908 58.92,-17.521 60.758,-17.521C62.583,-17.521 64.179,-16.908 65.545,-15.683C66.885,-14.47 67.709,-12.957 68.015,-11.144L53.386,-11.144Z" style="fill:white;fill-rule:nonzero;stroke:white;stroke-width:0.91px;"/>
                </g>
            </g>
        </g>
        <g transform="matrix(1.02,0,0,1,-14.9331,0)">
            <g>
                <g transform="matrix(1,0,0,1,746.649,397.469)">
                    <path d="M1.168,0L3.696,0L3.696,-10.512C3.696,-12.772 4.235,-14.505 5.314,-15.711C6.392,-16.918 7.889,-17.521 9.804,-17.521C11.719,-17.521 13.216,-16.905 14.294,-15.673C15.373,-14.441 15.912,-12.657 15.912,-10.321L15.912,0L18.44,0L18.44,-10.321C18.44,-13.449 17.668,-15.829 16.123,-17.463C14.578,-19.097 12.472,-19.914 9.804,-19.914C8.374,-19.914 7.171,-19.665 6.195,-19.168C5.218,-18.67 4.385,-17.846 3.696,-16.697L3.696,-27.459L1.168,-27.459L1.168,0Z" style="fill:white;fill-rule:nonzero;stroke:white;stroke-width:0.91px;"/>
                </g>
                <g transform="matrix(1,0,0,1,767.037,397.469)">
                    <path d="M0.977,-9.976L0.977,-9.632C0.977,-8.342 1.238,-7.098 1.762,-5.898C2.298,-4.647 3.025,-3.562 3.945,-2.642C4.864,-1.723 5.949,-0.996 7.2,-0.46C8.4,0.051 9.644,0.306 10.934,0.306L11.106,0.306C12.727,0.306 14.23,-0.109 15.616,-0.938C17.001,-1.768 18.019,-2.853 18.67,-4.194L18.67,0L21.178,0L21.178,-9.995C21.178,-11.272 20.923,-12.51 20.412,-13.71C19.876,-14.961 19.152,-16.046 18.239,-16.966C17.326,-17.885 16.244,-18.612 14.993,-19.148C13.793,-19.659 12.555,-19.914 11.278,-19.914L10.934,-19.914C9.644,-19.927 8.4,-19.672 7.2,-19.148C5.949,-18.612 4.864,-17.885 3.945,-16.966C3.025,-16.046 2.298,-14.961 1.762,-13.71C1.251,-12.51 0.989,-11.266 0.977,-9.976ZM3.485,-9.804C3.485,-11.949 4.232,-13.771 5.725,-15.271C7.219,-16.771 9.025,-17.521 11.144,-17.521C13.263,-17.521 15.054,-16.774 16.516,-15.28C17.977,-13.787 18.708,-11.961 18.708,-9.804C18.708,-7.647 17.977,-5.821 16.516,-4.328C15.054,-2.834 13.263,-2.087 11.144,-2.087C9.038,-2.087 7.235,-2.844 5.735,-4.356C4.235,-5.869 3.485,-7.685 3.485,-9.804Z" style="fill:white;fill-rule:nonzero;stroke:white;stroke-width:0.91px;"/>
                    <path d="M23.323,-9.976L23.323,-9.632C23.323,-8.342 23.584,-7.098 24.108,-5.898C24.644,-4.647 25.372,-3.562 26.291,-2.642C27.21,-1.723 28.295,-0.996 29.546,-0.46C30.746,0.051 31.991,0.306 33.28,0.306L33.452,0.306C35.393,0.306 37.17,-0.198 38.785,-1.206C40.4,-2.215 41.616,-3.562 42.433,-5.247L39.637,-5.247C38.91,-4.264 38.01,-3.491 36.937,-2.93C35.865,-2.368 34.716,-2.087 33.491,-2.087C31.384,-2.087 29.581,-2.844 28.081,-4.356C26.581,-5.869 25.831,-7.685 25.831,-9.804C25.831,-11.949 26.578,-13.771 28.072,-15.271C29.565,-16.771 31.372,-17.521 33.491,-17.521C34.742,-17.521 35.897,-17.246 36.956,-16.697C38.016,-16.149 38.91,-15.383 39.637,-14.4L42.337,-14.4C41.52,-16.072 40.314,-17.409 38.718,-18.411C37.122,-19.413 35.367,-19.914 33.452,-19.914L33.28,-19.914C31.991,-19.927 30.746,-19.672 29.546,-19.148C28.295,-18.612 27.21,-17.885 26.291,-16.966C25.372,-16.046 24.644,-14.961 24.108,-13.71C23.597,-12.51 23.336,-11.266 23.323,-9.976Z" style="fill:white;fill-rule:nonzero;stroke:white;stroke-width:0.91px;"/>
                    <path d="M44.405,-9.766C44.405,-7.94 44.846,-6.258 45.726,-4.72C46.607,-3.182 47.814,-1.96 49.346,-1.053C50.877,-0.147 52.562,0.306 54.401,0.306C56.277,0.306 58.036,-0.163 59.676,-1.101C61.316,-2.039 62.596,-3.306 63.515,-4.902L60.452,-4.902C59.737,-4.021 58.846,-3.332 57.78,-2.834C56.714,-2.336 55.575,-2.087 54.362,-2.087C52.345,-2.087 50.638,-2.754 49.24,-4.088C47.842,-5.422 47.105,-7.066 47.029,-9.019L64.3,-9.019C64.326,-9.121 64.339,-9.357 64.339,-9.727L64.339,-10.072C64.288,-11.961 63.799,-13.662 62.874,-15.175C61.948,-16.688 60.739,-17.856 59.245,-18.679C57.752,-19.503 56.124,-19.914 54.362,-19.914L54.152,-19.914C52.428,-19.914 50.82,-19.468 49.326,-18.574C47.769,-17.642 46.556,-16.391 45.688,-14.821C44.833,-13.302 44.405,-11.668 44.405,-9.919L44.405,-9.766ZM47.029,-11.144C47.335,-12.983 48.171,-14.495 49.537,-15.683C50.941,-16.908 52.562,-17.521 54.401,-17.521C56.226,-17.521 57.822,-16.908 59.188,-15.683C60.528,-14.47 61.352,-12.957 61.658,-11.144L47.029,-11.144Z" style="fill:white;fill-rule:nonzero;stroke:white;stroke-width:0.91px;"/>
                    <path d="M66.464,0L68.992,0L68.992,-10.321C68.992,-12.657 69.493,-14.441 70.495,-15.673C71.497,-16.905 72.885,-17.521 74.66,-17.521C76.434,-17.521 77.819,-16.905 78.815,-15.673C79.811,-14.441 80.309,-12.657 80.309,-10.321L80.309,0L82.817,0L82.817,-10.321C82.817,-12.657 83.321,-14.441 84.33,-15.673C85.338,-16.905 86.73,-17.521 88.504,-17.521C90.279,-17.521 91.664,-16.905 92.659,-15.673C93.655,-14.441 94.153,-12.657 94.153,-10.321L94.153,0L96.661,0L96.661,-10.321C96.661,-13.449 95.94,-15.829 94.498,-17.463C93.055,-19.097 91.057,-19.914 88.504,-19.914C86.832,-19.914 85.386,-19.519 84.167,-18.727C82.948,-17.936 82.083,-16.78 81.572,-15.261C81.062,-16.78 80.197,-17.936 78.978,-18.727C77.759,-19.519 76.319,-19.914 74.66,-19.914C72.094,-19.914 70.086,-19.101 68.638,-17.473C67.189,-15.845 66.464,-13.461 66.464,-10.321L66.464,0Z" style="fill:white;fill-rule:nonzero;stroke:white;stroke-width:0.91px;"/>
                    <path d="M98.806,-9.976L98.806,-9.632C98.806,-8.342 99.068,-7.098 99.591,-5.898C100.127,-4.647 100.855,-3.562 101.774,-2.642C102.693,-1.723 103.778,-0.996 105.029,-0.46C106.229,0.051 107.474,0.306 108.763,0.306L109.108,0.306C110.397,0.319 111.642,0.064 112.842,-0.46C114.093,-0.996 115.178,-1.723 116.097,-2.642C117.016,-3.562 117.744,-4.647 118.28,-5.898C118.791,-7.098 119.046,-8.342 119.046,-9.632L119.046,-9.976C119.059,-11.266 118.803,-12.51 118.28,-13.71C117.744,-14.961 117.016,-16.046 116.097,-16.966C115.178,-17.885 114.093,-18.612 112.842,-19.148C111.642,-19.659 110.397,-19.914 109.108,-19.914L108.763,-19.914C107.474,-19.927 106.229,-19.672 105.029,-19.148C103.778,-18.612 102.693,-17.885 101.774,-16.966C100.855,-16.046 100.127,-14.961 99.591,-13.71C99.08,-12.51 98.819,-11.266 98.806,-9.976ZM101.314,-9.804C101.314,-11.949 102.061,-13.771 103.555,-15.271C105.048,-16.771 106.855,-17.521 108.974,-17.521C111.093,-17.521 112.883,-16.774 114.345,-15.28C115.807,-13.787 116.537,-11.961 116.537,-9.804C116.537,-7.647 115.807,-5.821 114.345,-4.328C112.883,-2.834 111.093,-2.087 108.974,-2.087C106.867,-2.087 105.064,-2.844 103.564,-4.356C102.064,-5.869 101.314,-7.685 101.314,-9.804Z" style="fill:white;fill-rule:nonzero;stroke:white;stroke-width:0.91px;"/>
                    <path d="M120.807,-5.419C120.807,-3.708 121.471,-2.327 122.799,-1.273C124.127,-0.22 125.748,0.306 127.663,0.306C129.756,0.306 131.432,-0.182 132.689,-1.158C133.947,-2.135 134.575,-3.485 134.575,-5.208C134.575,-7.647 133.567,-9.268 131.55,-10.072C130.375,-10.557 129.29,-10.927 128.295,-11.183C127.873,-11.298 127.586,-11.374 127.433,-11.412C127.28,-11.451 127.034,-11.518 126.696,-11.614C126.357,-11.709 126.128,-11.783 126.006,-11.834C125.885,-11.885 125.697,-11.961 125.441,-12.064C125.186,-12.166 125.017,-12.255 124.934,-12.332C124.851,-12.408 124.723,-12.51 124.551,-12.638C124.379,-12.766 124.261,-12.89 124.197,-13.011C124.133,-13.133 124.06,-13.279 123.977,-13.452C123.894,-13.624 123.833,-13.806 123.795,-13.998C123.756,-14.189 123.731,-14.4 123.718,-14.629C123.718,-15.561 124.072,-16.305 124.781,-16.86C125.489,-17.416 126.412,-17.693 127.548,-17.693C128.684,-17.693 129.622,-17.412 130.363,-16.851C131.103,-16.289 131.473,-15.536 131.473,-14.591L133.905,-14.591C133.905,-16.212 133.308,-17.505 132.115,-18.469C130.921,-19.432 129.399,-19.914 127.548,-19.914C125.722,-19.914 124.21,-19.448 123.01,-18.517C121.797,-17.572 121.19,-16.327 121.19,-14.783C121.19,-12.561 122.148,-11.049 124.063,-10.244C124.944,-9.874 125.99,-9.53 127.203,-9.21C128.403,-8.891 129.297,-8.601 129.884,-8.339C130.471,-8.077 130.975,-7.717 131.397,-7.257C131.843,-6.772 132.067,-6.134 132.067,-5.342C132.067,-4.257 131.687,-3.415 130.927,-2.815C130.168,-2.215 129.092,-1.915 127.701,-1.915C126.399,-1.915 125.33,-2.234 124.494,-2.872C123.657,-3.511 123.239,-4.359 123.239,-5.419L120.807,-5.419Z" style="fill:white;fill-rule:nonzero;stroke:white;stroke-width:0.91px;"/>
                    <path d="M136.126,-19.838L138.635,-19.838C138.635,-21.382 139.308,-22.691 140.655,-23.763C142.002,-24.836 143.645,-25.372 145.586,-25.372C147.666,-25.372 149.342,-24.887 150.612,-23.916C151.882,-22.946 152.517,-21.587 152.517,-19.838C152.517,-18.14 151.93,-16.819 150.756,-15.874C150.092,-15.402 149.409,-14.961 148.707,-14.553C147.52,-13.863 146.626,-13.251 146.026,-12.715C145.426,-12.178 144.909,-11.444 144.475,-10.512C144.028,-9.478 143.805,-8.17 143.805,-6.587L146.313,-6.587C146.364,-7.366 146.466,-8.046 146.62,-8.626C146.773,-9.207 146.948,-9.689 147.146,-10.072C147.344,-10.455 147.647,-10.828 148.056,-11.192C148.464,-11.556 148.834,-11.847 149.166,-12.064C149.498,-12.281 149.99,-12.574 150.641,-12.944C151.305,-13.327 151.812,-13.637 152.163,-13.873C152.514,-14.109 152.894,-14.425 153.302,-14.821C153.711,-15.217 154.017,-15.625 154.222,-16.046C154.426,-16.468 154.604,-16.994 154.758,-17.626C154.911,-18.258 155,-18.995 155.026,-19.838C155.026,-21.472 154.598,-22.898 153.743,-24.117C152.888,-25.337 151.755,-26.249 150.344,-26.856C148.933,-27.462 147.347,-27.765 145.586,-27.765C143.875,-27.765 142.298,-27.427 140.856,-26.75C139.413,-26.074 138.264,-25.126 137.409,-23.907C136.554,-22.688 136.126,-21.331 136.126,-19.838ZM143.766,0L146.275,0L146.275,-3.811L143.766,-3.811L143.766,0Z" style="fill:white;fill-rule:nonzero;stroke:white;stroke-width:0.91px;"/>
                </g>
            </g>
        </g>
    </g>
</svg>
