<?xml version="1.0" encoding="UTF-8" standalone="no"?>
<svg id="Capa_1" data-name="Capa 1" xmlns="http://www.w3.org/2000/svg" viewBox="0 0 693.99 318.55"><defs><style>.cls-1{fill:#06b4ba;}.cls-2{fill:#1e6eb6;}.cls-3{fill:#e50774;}.cls-4{fill:#fff;}</style></defs><path class="cls-1" d="M484.34,55h-149a4.8,4.8,0,0,0-4.8,4.8v30.3a4.8,4.8,0,0,0,4.8,4.81h149a4.8,4.8,0,0,0,4.8-4.81V59.83A4.81,4.81,0,0,0,484.34,55Z" transform="translate(-49 -55.01)"/><path class="cls-2" d="M484.34,238.53h-149a4.8,4.8,0,0,0-4.8,4.8v29.53a4.8,4.8,0,0,0,4.8,4.8h149a4.79,4.79,0,0,0,4.8-4.8V243.33A4.79,4.79,0,0,0,484.34,238.53Z" transform="translate(-49 -55.01)"/><path class="cls-3" d="M484.34,146.58h-149a4.8,4.8,0,0,0-4.8,4.8v30.68a4.8,4.8,0,0,0,4.8,4.81h149a4.8,4.8,0,0,0,4.8-4.81V151.38A4.8,4.8,0,0,0,484.34,146.58Z" transform="translate(-49 -55.01)"/><path class="cls-4" d="M294.07,277.66a4.81,4.81,0,0,0,3.5-8.12l-59.42-62.61c35.82-12.4,59.37-40.84,59.37-72.72,0-42.23-41-76.93-93-79-1.46-.13-2.76-.21-3.7-.21h-147a4.82,4.82,0,0,0-3.54,8.09l75.48,81.26a4.76,4.76,0,0,0,3.52,1.54h39.56a4.82,4.82,0,0,0,3.49-8.12L131.87,95h66.18c.59,0,1.58.07,2.77.16a2.42,2.42,0,0,0,.6,0L202.8,95c.51,0,1-.08,1.54-.08,27.83,0,50.48,17.61,50.48,39.26s-22.65,39.25-50.48,39.25H163.86a4.4,4.4,0,0,0-1,.12h-82A4.8,4.8,0,0,0,76,178.4v94.45a4.8,4.8,0,0,0,4.8,4.81h29.55a4.81,4.81,0,0,0,4.81-4.81V213.91h74.58l58.44,62.24a4.78,4.78,0,0,0,3.5,1.51Z" transform="translate(-49 -55.01)"/><path class="cls-4" d="M726.27,230c8.41-12.77,13.9-29.7,16.3-50.3a3.39,3.39,0,0,0,0-.55l0-.69c.27-2.75.42-5.92.42-9.42a66.22,66.22,0,0,0-.39-8.1v-1.62c0-.1,0-.19,0-.29-1.35-22-7.11-40.74-17.22-55.77-8.91-12.41-19-21.9-29.86-28.18-11.47-6.66-21.8-11.27-30.42-13.61-10.38-3.55-18.44-5.41-24.48-5.68l-7.22-.59c-1.87-.14-3.1-.21-3.67-.21H527.39a4.81,4.81,0,0,0-4.81,4.81V90.14A4.81,4.81,0,0,0,527.39,95H630.11a45.73,45.73,0,0,1,5.35.53c2.75.4,6.35.86,10.53,1.34a86,86,0,0,1,12.69,3.33,59,59,0,0,1,12.68,6.33,63.61,63.61,0,0,1,22.42,20.75c2.54,3.72,4.81,9,6.72,15.72a97.13,97.13,0,0,1,3,21.82v1.95a100.05,100.05,0,0,1-3,25.36,52.77,52.77,0,0,1-7.62,17.07c-4.45,7.3-9.72,12.64-15.77,15.91-3.58,2.05-7,3.91-10.14,5.58a54.33,54.33,0,0,1-9.21,3.8,24.55,24.55,0,0,1-4,1,25.75,25.75,0,0,0-4.82,1.28c-1,.19-2,.34-3,.44-1.3.14-2.59.32-3.88.57a10.58,10.58,0,0,0-2.83.43,7.05,7.05,0,0,0-1.57.34H561.74V151.37a4.81,4.81,0,0,0-4.81-4.81H527.39a4.81,4.81,0,0,0-4.81,4.81V272.85a4.81,4.81,0,0,0,4.81,4.81H637.11c.58,0,2.29-.12,5.14-.41,2.6-.26,6.37-.64,11.31-1.17,10.09-1.09,22.14-5,36.06-11.87a116,116,0,0,0,19.08-13.78A100,100,0,0,0,726.27,230Z" transform="translate(-49 -55.01)"/><path class="cls-4" d="M75.6,354.11a18.34,18.34,0,0,1,1.48-7.06,19.1,19.1,0,0,1,10.29-10.28,17,17,0,0,1,7.06-1.45h.32a18.66,18.66,0,0,1,16.81,10.43h-5.11a14.51,14.51,0,0,0-5.07-4.35,14.62,14.62,0,1,0,0,26,14.92,14.92,0,0,0,5.1-4.38h5.29a18.35,18.35,0,0,1-6.9,7.64,18.73,18.73,0,0,1-10.09,2.86h-.32a17.77,17.77,0,0,1-7.06-1.45A19.33,19.33,0,0,1,81.21,368a19.57,19.57,0,0,1-4.13-6.15,17.51,17.51,0,0,1-1.48-7.07v-.65Z" transform="translate(-49 -55.01)"/><path class="cls-4" d="M145.11,354.11a18.35,18.35,0,0,1,1.49-7.06,19.12,19.12,0,0,1,10.28-10.28,17,17,0,0,1,7.06-1.45h.66a17.81,17.81,0,0,1,7.06,1.45,19.12,19.12,0,0,1,10.28,10.28,17.11,17.11,0,0,1,1.45,7.06v.65a17.82,17.82,0,0,1-1.45,7.07,19.21,19.21,0,0,1-10.28,10.28,17.14,17.14,0,0,1-7.06,1.45h-.66a17.81,17.81,0,0,1-7.06-1.45,19.21,19.21,0,0,1-10.28-10.28,17.52,17.52,0,0,1-1.49-7.07v-.65Zm9,10.63A13.9,13.9,0,0,0,164.34,369a13.67,13.67,0,0,0,10.16-4.23,15,15,0,0,0,0-20.72,13.68,13.68,0,0,0-10.16-4.24,14,14,0,0,0-10.25,4.26,14.68,14.68,0,0,0,0,20.64Z" transform="translate(-49 -55.01)"/><path class="cls-4" d="M217.09,353.46q0-8.86,4.38-13.51t11.95-4.63q7.58,0,12,4.63t4.39,13.51V373H245V353.46q0-6.63-3.06-10.12a12,12,0,0,0-17,0q-3.06,3.5-3.06,10.12V373h-4.78Z" transform="translate(-49 -55.01)"/><path class="cls-4" d="M287.69,362.73a5.78,5.78,0,0,0,2.38,4.82,11.41,11.41,0,0,0,12.16.11,5.75,5.75,0,0,0,2.16-4.79,5.13,5.13,0,0,0-1.27-3.62,8.5,8.5,0,0,0-2.86-2,35,35,0,0,0-5.07-1.65,44.94,44.94,0,0,1-5.94-2q-5.43-2.28-5.43-8.58a8.53,8.53,0,0,1,3.44-7.06,13.59,13.59,0,0,1,8.58-2.64,13.34,13.34,0,0,1,8.64,2.73,8.93,8.93,0,0,1,3.39,7.33h-4.6a5.09,5.09,0,0,0-2.1-4.27,8.59,8.59,0,0,0-5.33-1.59,8.23,8.23,0,0,0-5.23,1.57,5.09,5.09,0,0,0-2,4.22,8.42,8.42,0,0,0,.14,1.2,4.64,4.64,0,0,0,.35,1c.16.33.29.6.42.83a2.18,2.18,0,0,0,.67.71,9.21,9.21,0,0,1,.72.58,3.62,3.62,0,0,0,1,.5l1.07.44c.23.1.66.23,1.3.42l1.4.38c.29.07.83.21,1.62.43a45.48,45.48,0,0,1,6.16,2.1q5.73,2.28,5.72,9.2a9.18,9.18,0,0,1-3.56,7.66q-3.57,2.77-9.51,2.77a14.36,14.36,0,0,1-9.2-3,9.51,9.51,0,0,1-3.76-7.84Z" transform="translate(-49 -55.01)"/><path class="cls-4" d="M342.44,335.9h4.78v19.52q0,6.61,3.06,10.12a12.07,12.07,0,0,0,17,0q3.06-3.5,3.06-10.12V335.9h4.78v19.52q0,8.86-4.38,13.5t-12,4.64q-7.57,0-11.95-4.64t-4.38-13.5Z" transform="translate(-49 -55.01)"/><path class="cls-4" d="M409.89,321.05h4.78V373h-4.78Z" transform="translate(-49 -55.01)"/><path class="cls-4" d="M446.9,335.9h5.54V324.16h4.74V335.9h9.34v4.52h-9.34v14.92c0,3.94.81,7,2.41,9.24a10,10,0,0,0,6.93,4v4.6A14.82,14.82,0,0,1,456.15,368q-3.7-4.5-3.71-12.53V340.42H446.9Z" transform="translate(-49 -55.01)"/><path class="cls-4" d="M497.26,354.11a18.35,18.35,0,0,1,1.49-7.06A19.12,19.12,0,0,1,509,336.77a17,17,0,0,1,7.06-1.45h.65a17.82,17.82,0,0,1,7.07,1.45,19.12,19.12,0,0,1,10.28,10.28,17.11,17.11,0,0,1,1.45,7.06v.65a17.82,17.82,0,0,1-1.45,7.07,19.21,19.21,0,0,1-10.28,10.28,17.15,17.15,0,0,1-7.07,1.45h-.65a17.77,17.77,0,0,1-7.06-1.45,19.21,19.21,0,0,1-10.28-10.28,17.52,17.52,0,0,1-1.49-7.07v-.65Zm9,10.63A13.9,13.9,0,0,0,516.49,369a13.69,13.69,0,0,0,10.16-4.23,15,15,0,0,0,0-20.72,13.69,13.69,0,0,0-10.16-4.24,13.93,13.93,0,0,0-10.25,4.26,14.68,14.68,0,0,0,0,20.64Z" transform="translate(-49 -55.01)"/><path class="cls-4" d="M569.24,353.71q0-8.79,4.06-13.41t11.15-4.62a4.86,4.86,0,0,1,1.12.07v4.53a4.86,4.86,0,0,0-1.12-.07,9.27,9.27,0,0,0-7.68,3.46q-2.74,3.45-2.75,10V373h-4.78Z" transform="translate(-49 -55.01)"/><path class="cls-4" d="M616.31,354.22a19.18,19.18,0,0,1,9.31-16.37,17.43,17.43,0,0,1,9.12-2.53h.4a18.93,18.93,0,0,1,9.24,2.33,18.39,18.39,0,0,1,6.86,6.63,19.18,19.18,0,0,1,2.77,9.65v.65a8.31,8.31,0,0,1-.07,1.34H621.27a13.15,13.15,0,0,0,4.19,9.33,13.5,13.5,0,0,0,9.68,3.78,15.08,15.08,0,0,0,6.46-1.41,14.1,14.1,0,0,0,5.06-3.91h5.79a19.28,19.28,0,0,1-7.26,7.19,19.81,19.81,0,0,1-10,2.66,18.49,18.49,0,0,1-9.56-2.57,19,19,0,0,1-9.34-16.48Zm32.63-2.32a14.54,14.54,0,0,0-4.67-8.58,13.14,13.14,0,0,0-9.06-3.48,13.55,13.55,0,0,0-9.19,3.48,14.09,14.09,0,0,0-4.75,8.58Z" transform="translate(-49 -55.01)"/><path class="cls-4" d="M691.55,362.73a5.78,5.78,0,0,0,2.37,4.82,11.43,11.43,0,0,0,12.17.11,5.77,5.77,0,0,0,2.15-4.79,5.13,5.13,0,0,0-1.27-3.62,8.4,8.4,0,0,0-2.86-2,35,35,0,0,0-5.07-1.65,44.28,44.28,0,0,1-5.93-2q-5.45-2.28-5.44-8.58a8.53,8.53,0,0,1,3.44-7.06,13.6,13.6,0,0,1,8.59-2.64,13.29,13.29,0,0,1,8.63,2.73,8.93,8.93,0,0,1,3.39,7.33h-4.6a5.09,5.09,0,0,0-2.1-4.27,8.58,8.58,0,0,0-5.32-1.59,8.25,8.25,0,0,0-5.24,1.57,5.09,5.09,0,0,0-2,4.22,8.36,8.36,0,0,0,.15,1.2,4.15,4.15,0,0,0,.34,1c.16.33.3.6.42.83a2.18,2.18,0,0,0,.67.71,7.62,7.62,0,0,1,.72.58,3.62,3.62,0,0,0,1,.5l1.07.44c.23.1.66.23,1.3.42l1.4.38,1.63.43a45.85,45.85,0,0,1,6.15,2.1q5.73,2.28,5.73,9.2a9.16,9.16,0,0,1-3.57,7.66q-3.57,2.77-9.51,2.77a14.38,14.38,0,0,1-9.2-3,9.51,9.51,0,0,1-3.76-7.84Z" transform="translate(-49 -55.01)"/></svg>