<?xml version="1.0" encoding="UTF-8" standalone="no"?>
<!DOCTYPE svg PUBLIC "-//W3C//DTD SVG 1.1//EN" "http://www.w3.org/Graphics/SVG/1.1/DTD/svg11.dtd">
<svg width="100%" height="100%" viewBox="0 0 587 62" version="1.1" xmlns="http://www.w3.org/2000/svg" xmlns:xlink="http://www.w3.org/1999/xlink" xml:space="preserve" xmlns:serif="http://www.serif.com/" style="fill-rule:evenodd;clip-rule:evenodd;stroke-linejoin:round;stroke-miterlimit:2;">
    <g transform="matrix(4.16667,0,0,4.16667,-230.578,-318.083)">
        <g transform="matrix(-0.000784163,1,-1,-0.000784163,73.8864,76.3543)">
            <path d="M0,-9.649L0,-0C0,0.172 0.139,0.311 0.311,0.311L2.273,0.311C2.446,0.311 2.584,0.172 2.584,-0L2.584,-9.649C2.584,-9.821 2.446,-9.96 2.273,-9.96L0.312,-9.96C0.14,-9.96 0,-9.821 0,-9.649" style="fill:white;fill-rule:nonzero;"/>
        </g>
        <g transform="matrix(-0.000784163,1,-1,-0.000784163,73.8771,88.2405)">
            <path d="M0,-9.649L0,-0C0,0.172 0.139,0.311 0.312,0.311L2.224,0.311C2.396,0.311 2.535,0.172 2.535,-0L2.535,-9.649C2.535,-9.821 2.396,-9.96 2.224,-9.96L0.312,-9.96C0.139,-9.96 0,-9.821 0,-9.649" style="fill:white;fill-rule:nonzero;"/>
        </g>
        <g transform="matrix(-0.000784163,1,-1,-0.000784163,73.8818,82.2854)">
            <path d="M0,-9.649L0,-0C0,0.172 0.139,0.311 0.311,0.311L2.298,0.311C2.47,0.311 2.609,0.172 2.609,-0L2.609,-9.649C2.609,-9.821 2.47,-9.96 2.298,-9.96L0.311,-9.96C0.14,-9.96 0,-9.821 0,-9.649" style="fill:white;fill-rule:nonzero;"/>
        </g>
        <g transform="matrix(-0.000784163,1,-1,-0.000784163,55.6404,90.7609)">
            <path d="M0,-15.56C0,-15.685 -0.074,-15.797 -0.188,-15.847C-0.303,-15.896 -0.436,-15.872 -0.526,-15.787L-4.582,-11.938C-5.384,-14.259 -7.227,-15.784 -9.292,-15.784C-12.026,-15.784 -14.274,-13.13 -14.407,-9.757C-14.416,-9.663 -14.421,-9.579 -14.421,-9.518L-14.421,0.001C-14.421,0.125 -14.348,0.236 -14.234,0.287C-14.12,0.336 -13.987,0.314 -13.897,0.23L-8.634,-4.659C-8.57,-4.718 -8.534,-4.8 -8.534,-4.887L-8.534,-7.449C-8.534,-7.573 -8.608,-7.686 -8.723,-7.735C-8.837,-7.784 -8.97,-7.76 -9.06,-7.675L-11.833,-5.055L-11.833,-9.341C-11.833,-9.379 -11.829,-9.444 -11.823,-9.52C-11.821,-9.534 -11.821,-9.547 -11.822,-9.56L-11.828,-9.649C-11.831,-9.682 -11.833,-9.714 -11.833,-9.748C-11.833,-11.551 -10.693,-13.018 -9.291,-13.018C-7.889,-13.018 -6.748,-11.551 -6.748,-9.748L-6.748,-7.126C-6.748,-7.104 -6.746,-7.081 -6.741,-7.06L-6.741,-1.747C-6.741,-1.575 -6.602,-1.435 -6.429,-1.435L-0.312,-1.435C-0.139,-1.435 0,-1.575 0,-1.747L0,-3.661C0,-3.833 -0.139,-3.972 -0.312,-3.972L-4.129,-3.972L-4.129,-8.803L-0.098,-12.588C-0.035,-12.647 0,-12.728 0,-12.815L0,-15.56Z" style="fill:white;fill-rule:nonzero;"/>
        </g>
        <g transform="matrix(-0.000784163,1,-1,-0.000784163,87.086,87.6996)">
            <path d="M0,-12.11C-0.827,-12.655 -1.923,-13.01 -3.257,-13.166C-3.27,-13.168 -3.281,-13.168 -3.293,-13.168L-3.338,-13.167C-3.516,-13.184 -3.722,-13.193 -3.948,-13.193C-4.169,-13.193 -4.341,-13.185 -4.473,-13.168L-4.597,-13.168C-6.023,-13.081 -7.235,-12.707 -8.208,-12.052C-9.013,-11.475 -9.627,-10.824 -10.034,-10.118C-10.465,-9.376 -10.764,-8.706 -10.916,-8.148C-11.145,-7.476 -11.266,-6.954 -11.283,-6.563L-11.321,-6.095C-11.331,-5.974 -11.335,-5.894 -11.335,-5.857L-11.335,0.771C-11.335,0.943 -11.195,1.083 -11.023,1.083L-9.06,1.083C-8.887,1.083 -8.748,0.943 -8.748,0.771L-8.748,-5.882C-8.748,-5.948 -8.736,-6.065 -8.713,-6.228C-8.687,-6.406 -8.658,-6.639 -8.626,-6.91C-8.578,-7.178 -8.506,-7.455 -8.411,-7.732C-8.317,-8.001 -8.184,-8.27 -8.001,-8.553C-7.689,-9.127 -7.237,-9.615 -6.656,-10.006C-6.416,-10.171 -6.072,-10.317 -5.639,-10.441C-5.224,-10.551 -4.746,-10.616 -4.226,-10.632L-4.099,-10.632C-3.49,-10.632 -2.938,-10.568 -2.456,-10.441C-2.039,-10.332 -1.672,-10.17 -1.351,-9.946C-0.878,-9.658 -0.532,-9.317 -0.32,-8.925C-0.187,-8.693 -0.067,-8.475 0.041,-8.269C0.142,-8.075 0.224,-7.877 0.287,-7.672C0.316,-7.586 0.337,-7.501 0.352,-7.416C0.37,-7.305 0.398,-7.2 0.434,-7.105C0.447,-7.039 0.456,-6.973 0.462,-6.907C0.472,-6.823 0.483,-6.739 0.5,-6.656C0.501,-6.588 0.511,-6.527 0.527,-6.473C0.531,-6.436 0.539,-6.402 0.549,-6.371L0.549,-1.454L-5.094,-1.454C-5.266,-1.454 -5.405,-1.315 -5.405,-1.142L-5.405,0.771C-5.405,0.943 -5.266,1.083 -5.094,1.083L2.774,1.083C2.946,1.083 3.086,0.943 3.086,0.771L3.086,-6.336C3.086,-6.373 3.078,-6.484 3.059,-6.669C3.042,-6.837 3.018,-7.081 2.983,-7.401C2.913,-8.054 2.657,-8.835 2.215,-9.736C1.988,-10.139 1.687,-10.554 1.322,-10.972C0.953,-11.394 0.508,-11.777 0,-12.11" style="fill:white;fill-rule:nonzero;"/>
        </g>
        <g transform="matrix(-0.000784163,1,-1,-0.000784163,111.371,85.5614)">
            <path d="M0,10.043C-0.678,10.036 -1.332,9.899 -1.962,9.63C-2.62,9.349 -3.19,8.966 -3.673,8.483C-4.156,8 -4.539,7.43 -4.821,6.772C-5.096,6.142 -5.23,5.487 -5.223,4.81L-5.223,4.719C-5.223,3.713 -4.96,2.791 -4.433,1.952C-3.907,1.113 -3.204,0.479 -2.325,0.05L-2.325,1.469C-2.841,1.851 -3.244,2.321 -3.533,2.877C-3.821,3.435 -3.965,4.042 -3.965,4.699C-3.965,5.813 -3.571,6.762 -2.783,7.547C-1.994,8.332 -1.037,8.725 0.09,8.725C1.204,8.725 2.159,8.331 2.954,7.542C3.749,6.754 4.146,5.806 4.146,4.699C4.146,4.055 3.999,3.451 3.704,2.888C3.408,2.324 3.002,1.851 2.486,1.469L2.486,0C3.371,0.429 4.079,1.068 4.609,1.917C5.139,2.766 5.404,3.7 5.404,4.719L5.404,4.81C5.404,5.487 5.27,6.142 5.001,6.772C4.72,7.43 4.337,8 3.854,8.483C3.371,8.966 2.801,9.349 2.144,9.63C1.513,9.906 0.859,10.043 0.181,10.043L0,10.043Z" style="fill:white;fill-rule:nonzero;"/>
        </g>
        <g transform="matrix(-0.000784163,1,-1,-0.000784163,120.548,88.5222)">
            <path d="M0,5.643C0.795,4.854 1.193,3.907 1.193,2.8C1.193,1.686 0.8,0.745 0.015,-0.023C-0.77,-0.791 -1.729,-1.175 -2.863,-1.175C-3.997,-1.175 -4.956,-0.791 -5.741,-0.023C-6.526,0.745 -6.919,1.686 -6.919,2.8C-6.919,3.914 -6.524,4.863 -5.736,5.648C-4.948,6.433 -3.99,6.825 -2.863,6.825C-1.75,6.825 -0.795,6.432 0,5.643M-2.954,8.144C-3.631,8.137 -4.286,7.999 -4.916,7.731C-5.574,7.449 -6.144,7.067 -6.627,6.584C-7.11,6.101 -7.493,5.531 -7.774,4.873C-8.049,4.243 -8.184,3.588 -8.177,2.911L-8.177,2.729C-8.177,2.052 -8.042,1.398 -7.774,0.767C-7.493,0.109 -7.11,-0.461 -6.627,-0.944C-6.144,-1.427 -5.574,-1.809 -4.916,-2.091C-4.286,-2.366 -3.631,-2.501 -2.954,-2.494L-2.772,-2.494C-2.095,-2.494 -1.441,-2.359 -0.81,-2.091C-0.152,-1.809 0.417,-1.427 0.901,-0.944C1.384,-0.461 1.766,0.109 2.048,0.767C2.323,1.398 2.458,2.052 2.451,2.729L2.451,2.911C2.451,3.588 2.316,4.243 2.048,4.873C1.766,5.531 1.384,6.101 0.901,6.584C0.417,7.067 -0.152,7.449 -0.81,7.731C-1.441,8.006 -2.095,8.144 -2.772,8.144L-2.954,8.144Z" style="fill:white;fill-rule:nonzero;"/>
        </g>
        <g transform="matrix(-0.000784163,1,-1,-0.000784163,133.249,85.3975)">
            <path d="M0,9.078C-1.644,9.078 -2.895,8.672 -3.754,7.86C-4.613,7.049 -5.042,5.942 -5.042,4.539C-5.042,3.137 -4.613,2.03 -3.754,1.218C-2.895,0.407 -1.644,0 0,0L5.424,0L5.424,1.329L0,1.329C-1.228,1.329 -2.166,1.613 -2.813,2.18C-3.46,2.746 -3.784,3.533 -3.784,4.539C-3.784,5.546 -3.46,6.332 -2.813,6.899C-2.166,7.466 -1.228,7.75 0,7.75L5.424,7.75L5.424,9.078L0,9.078Z" style="fill:white;fill-rule:nonzero;"/>
        </g>
        <g transform="matrix(-0.000784163,1,-1,-0.000784163,140.23,87.979)">
            <path d="M0,4.68C0.557,4.68 1.003,4.46 1.338,4.021C1.674,3.581 1.842,3.019 1.842,2.335C1.842,1.604 1.684,1.039 1.369,0.639C1.053,0.241 0.611,0.041 0.041,0.041C-0.375,0.041 -0.711,0.158 -0.966,0.393C-1.208,0.615 -1.397,0.879 -1.535,1.188C-1.672,1.496 -1.825,1.966 -1.993,2.597C-2.16,3.234 -2.341,3.784 -2.536,4.247C-2.958,5.254 -3.753,5.757 -4.921,5.757C-5.733,5.757 -6.387,5.438 -6.883,4.801C-7.374,4.17 -7.618,3.375 -7.618,2.416C-7.618,1.443 -7.365,0.643 -6.858,0.015C-6.352,-0.612 -5.672,-0.925 -4.82,-0.925L-4.82,0.352C-5.317,0.352 -5.713,0.547 -6.008,0.936C-6.303,1.326 -6.451,1.819 -6.451,2.416C-6.451,3.013 -6.305,3.497 -6.013,3.87C-5.721,4.243 -5.331,4.429 -4.84,4.429C-4.72,4.422 -4.609,4.409 -4.508,4.388C-4.408,4.368 -4.312,4.336 -4.222,4.293C-4.131,4.249 -4.054,4.21 -3.99,4.177C-3.926,4.143 -3.861,4.081 -3.794,3.991C-3.727,3.9 -3.673,3.833 -3.633,3.789C-3.593,3.746 -3.546,3.657 -3.492,3.523C-3.438,3.388 -3.398,3.289 -3.371,3.226C-3.344,3.162 -3.306,3.041 -3.255,2.864C-3.205,2.686 -3.17,2.556 -3.15,2.476C-3.13,2.396 -3.089,2.244 -3.029,2.023C-2.895,1.5 -2.7,0.93 -2.445,0.312C-2.023,-0.748 -1.17,-1.278 0.111,-1.278C1.017,-1.278 1.726,-0.947 2.239,-0.286C2.752,0.374 3.009,1.255 3.009,2.355C3.009,3.362 2.732,4.214 2.179,4.911C1.625,5.609 0.899,5.958 0,5.958L0,4.68Z" style="fill:white;fill-rule:nonzero;"/>
        </g>
        <g transform="matrix(-0.000784163,1,-1,-0.000784163,151.608,80.531)">
            <path d="M0,9.078L0,7.749L5.424,7.749C6.652,7.749 7.59,7.466 8.237,6.899C8.884,6.332 9.208,5.546 9.208,4.539C9.208,3.533 8.884,2.746 8.237,2.179C7.59,1.612 6.652,1.329 5.424,1.329L0,1.329L0,0L5.424,0C7.068,0 8.319,0.407 9.178,1.218C10.037,2.03 10.466,3.137 10.466,4.539C10.466,5.941 10.037,7.049 9.178,7.86C8.319,8.672 7.068,9.078 5.424,9.078L0,9.078Z" style="fill:white;fill-rule:nonzero;"/>
        </g>
        <g transform="matrix(-0.000784163,1,-1,-0.000784163,575.127,46.0504)">
            <rect x="30.686" y="420.736" width="14.432" height="1.329" style="fill:white;"/>
        </g>
        <g transform="matrix(-0.000784163,1,-1,-0.000784163,160.534,80.538)">
            <path d="M0,5.455L0,3.915L-3.261,3.915L-3.261,2.597L0,2.597L0,0L1.258,0L1.258,2.597L5.404,2.597C6.498,2.597 7.353,2.374 7.97,1.928C8.588,1.482 8.96,0.839 9.087,0L10.366,0C10.238,1.235 9.758,2.196 8.927,2.884C8.094,3.572 6.934,3.915 5.444,3.915L1.258,3.915L1.258,5.455L0,5.455Z" style="fill:white;fill-rule:nonzero;"/>
        </g>
        <g transform="matrix(-0.000784163,1,-1,-0.000784163,168.971,88.5602)">
            <path d="M0,5.642C0.795,4.854 1.193,3.906 1.193,2.799C1.193,1.685 0.8,0.745 0.015,-0.024C-0.77,-0.792 -1.729,-1.176 -2.863,-1.176C-3.997,-1.176 -4.956,-0.792 -5.741,-0.024C-6.526,0.745 -6.919,1.685 -6.919,2.799C-6.919,3.913 -6.524,4.862 -5.736,5.647C-4.948,6.432 -3.99,6.825 -2.863,6.825C-1.75,6.825 -0.795,6.431 0,5.642M-2.954,8.143C-3.631,8.136 -4.286,7.998 -4.916,7.73C-5.574,7.449 -6.144,7.066 -6.627,6.583C-7.11,6.1 -7.493,5.53 -7.774,4.872C-8.049,4.242 -8.184,3.587 -8.177,2.91L-8.177,2.728C-8.177,2.051 -8.042,1.397 -7.774,0.766C-7.493,0.109 -7.11,-0.462 -6.627,-0.944C-6.144,-1.428 -5.574,-1.81 -4.916,-2.092C-4.286,-2.367 -3.631,-2.501 -2.954,-2.495L-2.772,-2.495C-2.095,-2.495 -1.441,-2.36 -0.81,-2.092C-0.152,-1.81 0.417,-1.428 0.901,-0.944C1.384,-0.462 1.766,0.109 2.048,0.766C2.323,1.397 2.458,2.051 2.451,2.728L2.451,2.91C2.451,3.587 2.316,4.242 2.048,4.872C1.766,5.53 1.384,6.1 0.901,6.583C0.417,7.066 -0.152,7.449 -0.81,7.73C-1.441,8.005 -2.095,8.143 -2.772,8.143L-2.954,8.143Z" style="fill:white;fill-rule:nonzero;"/>
        </g>
        <g transform="matrix(-0.000784163,1,-1,-0.000784163,177.133,85.5022)">
            <path d="M0,4.539C-1.63,4.539 -2.873,4.163 -3.729,3.412C-4.584,2.66 -5.012,1.627 -5.012,0.312C-5.012,0.144 -5.005,0.04 -4.992,0L-3.733,0C-3.747,0.04 -3.753,0.144 -3.753,0.312C-3.753,1.225 -3.434,1.935 -2.792,2.446C-2.152,2.956 -1.221,3.21 0,3.21L5.354,3.21L5.354,4.539L0,4.539Z" style="fill:white;fill-rule:nonzero;"/>
        </g>
        <g transform="matrix(-0.000784163,1,-1,-0.000784163,178.844,85.0005)">
            <path d="M0,-7.658C-0.953,-7.497 -1.748,-7.065 -2.385,-6.36C-3.029,-5.642 -3.352,-4.804 -3.352,-3.844C-3.352,-2.878 -3.029,-2.026 -2.385,-1.288C-1.761,-0.57 -0.966,-0.131 0,0.03L0,-7.658ZM0.644,1.409C-0.275,1.409 -1.134,1.184 -1.932,0.735C-2.758,0.279 -3.415,-0.359 -3.905,-1.177C-4.375,-1.962 -4.609,-2.807 -4.609,-3.713L-4.609,-3.824C-4.609,-4.75 -4.393,-5.605 -3.96,-6.39C-3.527,-7.175 -2.914,-7.811 -2.119,-8.298C-1.324,-8.783 -0.43,-9.04 0.563,-9.067L0.745,-9.067C0.939,-9.067 1.063,-9.06 1.117,-9.047L1.117,0.03C2.144,-0.01 3.007,-0.397 3.708,-1.132C4.41,-1.866 4.76,-2.764 4.76,-3.824C4.76,-4.461 4.629,-5.06 4.368,-5.62C4.106,-6.18 3.744,-6.649 3.281,-7.024L3.281,-8.635C4.119,-8.151 4.785,-7.479 5.278,-6.616C5.771,-5.755 6.018,-4.83 6.018,-3.844C6.018,-2.878 5.78,-1.992 5.303,-1.187C4.827,-0.382 4.185,0.252 3.376,0.715C2.568,1.178 1.684,1.409 0.725,1.409L0.644,1.409Z" style="fill:white;fill-rule:nonzero;"/>
        </g>
        <g transform="matrix(-0.000784163,1,-1,-0.000784163,194.783,88.0218)">
            <path d="M0,4.68C0.557,4.68 1.003,4.46 1.338,4.021C1.674,3.581 1.842,3.02 1.842,2.335C1.842,1.604 1.684,1.039 1.369,0.639C1.053,0.241 0.611,0.041 0.041,0.041C-0.375,0.041 -0.711,0.158 -0.966,0.393C-1.208,0.615 -1.397,0.879 -1.535,1.188C-1.672,1.496 -1.825,1.967 -1.993,2.597C-2.16,3.235 -2.341,3.784 -2.536,4.247C-2.958,5.254 -3.753,5.757 -4.921,5.757C-5.733,5.757 -6.387,5.438 -6.883,4.801C-7.374,4.17 -7.618,3.375 -7.618,2.416C-7.618,1.443 -7.365,0.643 -6.858,0.016C-6.352,-0.612 -5.672,-0.925 -4.82,-0.925L-4.82,0.353C-5.317,0.353 -5.713,0.547 -6.008,0.936C-6.303,1.326 -6.451,1.819 -6.451,2.416C-6.451,3.013 -6.305,3.498 -6.013,3.87C-5.721,4.243 -5.331,4.429 -4.84,4.429C-4.72,4.422 -4.609,4.409 -4.508,4.388C-4.408,4.368 -4.312,4.336 -4.222,4.293C-4.131,4.249 -4.054,4.211 -3.99,4.177C-3.926,4.143 -3.861,4.081 -3.794,3.991C-3.727,3.9 -3.673,3.833 -3.633,3.789C-3.593,3.746 -3.546,3.657 -3.492,3.523C-3.438,3.389 -3.398,3.29 -3.371,3.226C-3.344,3.162 -3.306,3.041 -3.255,2.864C-3.205,2.686 -3.17,2.557 -3.15,2.476C-3.13,2.396 -3.089,2.245 -3.029,2.023C-2.895,1.5 -2.7,0.93 -2.445,0.312C-2.023,-0.747 -1.17,-1.278 0.111,-1.278C1.017,-1.278 1.726,-0.947 2.239,-0.286C2.752,0.375 3.009,1.255 3.009,2.355C3.009,3.362 2.732,4.214 2.179,4.912C1.625,5.61 0.899,5.958 0,5.958L0,4.68Z" style="fill:white;fill-rule:nonzero;"/>
        </g>
    </g>
</svg>
