<?xml version="1.0" encoding="UTF-8" standalone="no"?>
<!DOCTYPE svg PUBLIC "-//W3C//DTD SVG 1.1//EN" "http://www.w3.org/Graphics/SVG/1.1/DTD/svg11.dtd">
<svg width="100%" height="100%" viewBox="0 0 791 397" version="1.1" xmlns="http://www.w3.org/2000/svg" xmlns:xlink="http://www.w3.org/1999/xlink" xml:space="preserve" xmlns:serif="http://www.serif.com/" style="fill-rule:evenodd;clip-rule:evenodd;stroke-miterlimit:10;">
    <g transform="matrix(5.55556,0,0,5.55556,-718.616,-586.895)">
        <g transform="matrix(1.02,0,0,1,-3.42849,0)">
            <g>
                <g transform="matrix(1,0,0,1,171.423,138.029)">
                    <path d="M0.977,-7.602C0.977,-5.968 1.407,-4.545 2.269,-3.332C3.131,-2.119 4.267,-1.21 5.678,-0.603C7.088,0.003 8.674,0.306 10.436,0.306C12.146,0.306 13.72,-0.029 15.156,-0.699C16.592,-1.369 17.738,-2.314 18.593,-3.533C19.448,-4.752 19.876,-6.108 19.876,-7.602L17.368,-7.602C17.368,-6.057 16.697,-4.752 15.357,-3.686C14.017,-2.62 12.376,-2.087 10.436,-2.087C8.342,-2.087 6.66,-2.572 5.39,-3.542C4.12,-4.513 3.485,-5.866 3.485,-7.602C3.485,-9.3 4.059,-10.608 5.208,-11.527C5.923,-12.064 6.619,-12.523 7.296,-12.906C8.483,-13.595 9.373,-14.208 9.967,-14.744C10.56,-15.28 11.068,-16.014 11.489,-16.946C11.961,-17.942 12.198,-19.251 12.198,-20.872L9.689,-20.872C9.638,-20.093 9.536,-19.41 9.383,-18.823C9.23,-18.236 9.057,-17.754 8.866,-17.377C8.674,-17.001 8.371,-16.627 7.956,-16.257C7.541,-15.887 7.174,-15.6 6.855,-15.395C6.536,-15.191 6.045,-14.897 5.381,-14.515C4.832,-14.195 4.404,-13.934 4.098,-13.729C3.791,-13.525 3.45,-13.27 3.073,-12.963C2.697,-12.657 2.406,-12.351 2.202,-12.044C1.998,-11.738 1.794,-11.371 1.589,-10.943C1.385,-10.516 1.238,-10.027 1.149,-9.478C1.06,-8.93 1.002,-8.304 0.977,-7.602ZM9.727,-23.648L12.236,-23.648L12.236,-27.459L9.727,-27.459L9.727,-23.648Z" style="fill:white;fill-rule:nonzero;stroke:white;stroke-width:0.91px;"/>
                </g>
                <g transform="matrix(1,0,0,1,192.872,138.029)">
                    <path d="M0.977,-13.998L0.977,-13.461C0.977,-11.661 1.328,-9.932 2.03,-8.272C2.783,-6.523 3.798,-5.017 5.074,-3.753C6.351,-2.489 7.864,-1.487 9.613,-0.747C11.285,-0.045 13.015,0.306 14.802,0.306L15.089,0.306C18.089,0.306 20.795,-0.53 23.208,-2.202L25.716,0.383L27.535,-1.206L25.104,-3.772C26.418,-5.049 27.433,-6.546 28.148,-8.263C28.863,-9.98 29.221,-11.802 29.221,-13.729L29.221,-13.998C29.221,-15.797 28.863,-17.527 28.148,-19.187C27.395,-20.936 26.38,-22.442 25.104,-23.706C23.827,-24.97 22.314,-25.972 20.565,-26.712C18.893,-27.414 17.163,-27.765 15.376,-27.765L14.802,-27.765C13.015,-27.765 11.285,-27.414 9.613,-26.712C7.864,-25.972 6.351,-24.97 5.074,-23.706C3.798,-22.442 2.783,-20.936 2.03,-19.187C1.328,-17.527 0.977,-15.797 0.977,-13.998ZM3.485,-13.519L3.485,-13.94C3.485,-15.957 3.996,-17.834 5.017,-19.57C6.064,-21.357 7.487,-22.767 9.287,-23.802C11.023,-24.797 12.881,-25.295 14.859,-25.295L15.28,-25.295C16.774,-25.295 18.217,-25.008 19.608,-24.433C21.051,-23.821 22.295,-22.997 23.342,-21.963C24.389,-20.929 25.218,-19.691 25.831,-18.248C26.418,-16.87 26.712,-15.427 26.712,-13.921L26.712,-13.729C26.712,-10.564 25.614,-7.883 23.419,-5.687L20.738,-8.464L18.9,-6.817L21.523,-4.117C19.646,-2.815 17.502,-2.164 15.089,-2.164L14.859,-2.164C12.881,-2.164 11.023,-2.662 9.287,-3.657C7.487,-4.691 6.064,-6.102 5.017,-7.889C3.996,-9.625 3.485,-11.502 3.485,-13.519Z" style="fill:white;fill-rule:nonzero;stroke:white;stroke-width:0.91px;"/>
                    <path d="M31.346,-9.287C31.346,-6.159 32.118,-3.779 33.663,-2.145C35.208,-0.511 37.314,0.306 39.982,0.306C42.65,0.306 44.756,-0.511 46.301,-2.145C47.846,-3.779 48.618,-6.159 48.618,-9.287L48.618,-19.608L46.09,-19.608L46.09,-9.287C46.09,-6.951 45.551,-5.167 44.472,-3.935C43.394,-2.703 41.897,-2.087 39.982,-2.087C38.067,-2.087 36.57,-2.703 35.492,-3.935C34.413,-5.167 33.874,-6.951 33.874,-9.287L33.874,-19.608L31.346,-19.608L31.346,-9.287Z" style="fill:white;fill-rule:nonzero;stroke:white;stroke-width:0.91px;"/>
                    <path d="M50.763,-9.766C50.763,-7.94 51.203,-6.258 52.084,-4.72C52.965,-3.182 54.171,-1.96 55.703,-1.053C57.235,-0.147 58.92,0.306 60.758,0.306C62.635,0.306 64.393,-0.163 66.033,-1.101C67.674,-2.039 68.954,-3.306 69.873,-4.902L66.809,-4.902C66.094,-4.021 65.204,-3.332 64.138,-2.834C63.072,-2.336 61.932,-2.087 60.72,-2.087C58.703,-2.087 56.995,-2.754 55.597,-4.088C54.2,-5.422 53.462,-7.066 53.386,-9.019L70.658,-9.019C70.683,-9.121 70.696,-9.357 70.696,-9.727L70.696,-10.072C70.645,-11.961 70.157,-13.662 69.231,-15.175C68.306,-16.688 67.096,-17.856 65.603,-18.679C64.109,-19.503 62.481,-19.914 60.72,-19.914C58.92,-19.953 57.244,-19.506 55.693,-18.574C54.142,-17.642 52.926,-16.391 52.045,-14.821C51.165,-13.251 50.737,-11.566 50.763,-9.766ZM53.386,-11.144C53.692,-12.983 54.528,-14.495 55.894,-15.683C57.299,-16.908 58.92,-17.521 60.758,-17.521C62.583,-17.521 64.179,-16.908 65.545,-15.683C66.885,-14.47 67.709,-12.957 68.015,-11.144L53.386,-11.144ZM59.437,-21.963L61.505,-21.963L64.186,-25.85L61.907,-25.85L59.437,-21.963Z" style="fill:white;fill-rule:nonzero;stroke:white;stroke-width:0.91px;"/>
                </g>
            </g>
        </g>
        <g transform="matrix(1.02,0,0,1,-2.66348,0)">
            <g>
                <g transform="matrix(1,0,0,1,133.173,172.109)">
                    <path d="M0.785,-5.419C0.785,-3.708 1.449,-2.327 2.777,-1.273C4.104,-0.22 5.725,0.306 7.64,0.306C9.734,0.306 11.409,-0.182 12.667,-1.158C13.924,-2.135 14.553,-3.485 14.553,-5.208C14.553,-7.647 13.544,-9.268 11.527,-10.072C10.353,-10.557 9.268,-10.927 8.272,-11.183C7.851,-11.298 7.564,-11.374 7.41,-11.412C7.257,-11.451 7.012,-11.518 6.673,-11.614C6.335,-11.709 6.105,-11.783 5.984,-11.834C5.863,-11.885 5.674,-11.961 5.419,-12.064C5.164,-12.166 4.995,-12.255 4.912,-12.332C4.829,-12.408 4.701,-12.51 4.529,-12.638C4.356,-12.766 4.238,-12.89 4.174,-13.011C4.111,-13.133 4.037,-13.279 3.954,-13.452C3.871,-13.624 3.811,-13.806 3.772,-13.998C3.734,-14.189 3.708,-14.4 3.696,-14.629C3.696,-15.561 4.05,-16.305 4.758,-16.86C5.467,-17.416 6.389,-17.693 7.525,-17.693C8.661,-17.693 9.6,-17.412 10.34,-16.851C11.081,-16.289 11.451,-15.536 11.451,-14.591L13.883,-14.591C13.883,-16.212 13.286,-17.505 12.092,-18.469C10.899,-19.432 9.376,-19.914 7.525,-19.914C5.7,-19.914 4.187,-19.448 2.987,-18.517C1.774,-17.572 1.168,-16.327 1.168,-14.783C1.168,-12.561 2.125,-11.049 4.04,-10.244C4.921,-9.874 5.968,-9.53 7.181,-9.21C8.381,-8.891 9.274,-8.601 9.861,-8.339C10.449,-8.077 10.953,-7.717 11.374,-7.257C11.821,-6.772 12.044,-6.134 12.044,-5.342C12.044,-4.257 11.665,-3.415 10.905,-2.815C10.145,-2.215 9.07,-1.915 7.679,-1.915C6.376,-1.915 5.307,-2.234 4.471,-2.872C3.635,-3.511 3.217,-4.359 3.217,-5.419L0.785,-5.419Z" style="fill:white;fill-rule:nonzero;stroke:white;stroke-width:0.91px;"/>
                </g>
                <g transform="matrix(1,0,0,1,149.286,172.109)">
                    <path d="M0.977,-9.976L0.977,-9.632C0.977,-8.342 1.238,-7.098 1.762,-5.898C2.298,-4.647 3.025,-3.562 3.945,-2.642C4.864,-1.723 5.949,-0.996 7.2,-0.46C8.4,0.051 9.644,0.306 10.934,0.306L11.278,0.306C12.568,0.319 13.812,0.064 15.012,-0.46C16.263,-0.996 17.348,-1.723 18.268,-2.642C19.187,-3.562 19.914,-4.647 20.451,-5.898C20.961,-7.098 21.216,-8.342 21.216,-9.632L21.216,-9.976C21.229,-11.266 20.974,-12.51 20.451,-13.71C19.914,-14.961 19.187,-16.046 18.268,-16.966C17.348,-17.885 16.263,-18.612 15.012,-19.148C13.812,-19.659 12.568,-19.914 11.278,-19.914L10.934,-19.914C9.644,-19.927 8.4,-19.672 7.2,-19.148C5.949,-18.612 4.864,-17.885 3.945,-16.966C3.025,-16.046 2.298,-14.961 1.762,-13.71C1.251,-12.51 0.989,-11.266 0.977,-9.976ZM3.485,-9.804C3.485,-11.949 4.232,-13.771 5.725,-15.271C7.219,-16.771 9.025,-17.521 11.144,-17.521C13.263,-17.521 15.054,-16.774 16.516,-15.28C17.977,-13.787 18.708,-11.961 18.708,-9.804C18.708,-7.647 17.977,-5.821 16.516,-4.328C15.054,-2.834 13.263,-2.087 11.144,-2.087C9.038,-2.087 7.235,-2.844 5.735,-4.356C4.235,-5.869 3.485,-7.685 3.485,-9.804Z" style="fill:white;fill-rule:nonzero;stroke:white;stroke-width:0.91px;"/>
                    <path d="M23.361,0L25.889,0L25.889,-10.321C25.889,-12.657 26.39,-14.441 27.392,-15.673C28.394,-16.905 29.782,-17.521 31.557,-17.521C33.331,-17.521 34.716,-16.905 35.712,-15.673C36.708,-14.441 37.205,-12.657 37.205,-10.321L37.205,0L39.714,0L39.714,-10.321C39.714,-12.657 40.218,-14.441 41.227,-15.673C42.235,-16.905 43.627,-17.521 45.401,-17.521C47.175,-17.521 48.56,-16.905 49.556,-15.673C50.552,-14.441 51.05,-12.657 51.05,-10.321L51.05,0L53.558,0L53.558,-10.321C53.558,-13.449 52.837,-15.829 51.394,-17.463C49.952,-19.097 47.954,-19.914 45.401,-19.914C43.729,-19.914 42.283,-19.519 41.064,-18.727C39.845,-17.936 38.98,-16.78 38.469,-15.261C37.959,-16.78 37.094,-17.936 35.875,-18.727C34.655,-19.519 33.216,-19.914 31.557,-19.914C28.991,-19.914 26.983,-19.101 25.534,-17.473C24.086,-15.845 23.361,-13.461 23.361,-10.321L23.361,0Z" style="fill:white;fill-rule:nonzero;stroke:white;stroke-width:0.91px;"/>
                    <path d="M55.703,-9.976L55.703,-9.632C55.703,-8.342 55.965,-7.098 56.488,-5.898C57.024,-4.647 57.752,-3.562 58.671,-2.642C59.59,-1.723 60.675,-0.996 61.926,-0.46C63.126,0.051 64.371,0.306 65.66,0.306L66.005,0.306C67.294,0.319 68.539,0.064 69.739,-0.46C70.99,-0.996 72.075,-1.723 72.994,-2.642C73.913,-3.562 74.641,-4.647 75.177,-5.898C75.687,-7.098 75.943,-8.342 75.943,-9.632L75.943,-9.976C75.955,-11.266 75.7,-12.51 75.177,-13.71C74.641,-14.961 73.913,-16.046 72.994,-16.966C72.075,-17.885 70.99,-18.612 69.739,-19.148C68.539,-19.659 67.294,-19.914 66.005,-19.914L65.66,-19.914C64.371,-19.927 63.126,-19.672 61.926,-19.148C60.675,-18.612 59.59,-17.885 58.671,-16.966C57.752,-16.046 57.024,-14.961 56.488,-13.71C55.977,-12.51 55.716,-11.266 55.703,-9.976ZM58.211,-9.804C58.211,-11.949 58.958,-13.771 60.452,-15.271C61.945,-16.771 63.752,-17.521 65.871,-17.521C67.99,-17.521 69.78,-16.774 71.242,-15.28C72.703,-13.787 73.434,-11.961 73.434,-9.804C73.434,-7.647 72.703,-5.821 71.242,-4.328C69.78,-2.834 67.99,-2.087 65.871,-2.087C63.764,-2.087 61.961,-2.844 60.461,-4.356C58.961,-5.869 58.211,-7.685 58.211,-9.804Z" style="fill:white;fill-rule:nonzero;stroke:white;stroke-width:0.91px;"/>
                    <path d="M77.704,-5.419C77.704,-3.708 78.368,-2.327 79.696,-1.273C81.023,-0.22 82.645,0.306 84.56,0.306C86.653,0.306 88.329,-0.182 89.586,-1.158C90.843,-2.135 91.472,-3.485 91.472,-5.208C91.472,-7.647 90.464,-9.268 88.447,-10.072C87.272,-10.557 86.187,-10.927 85.191,-11.183C84.77,-11.298 84.483,-11.374 84.33,-11.412C84.177,-11.451 83.931,-11.518 83.593,-11.614C83.254,-11.709 83.024,-11.783 82.903,-11.834C82.782,-11.885 82.594,-11.961 82.338,-12.064C82.083,-12.166 81.914,-12.255 81.831,-12.332C81.748,-12.408 81.62,-12.51 81.448,-12.638C81.276,-12.766 81.157,-12.89 81.094,-13.011C81.03,-13.133 80.956,-13.279 80.873,-13.452C80.79,-13.624 80.73,-13.806 80.692,-13.998C80.653,-14.189 80.628,-14.4 80.615,-14.629C80.615,-15.561 80.969,-16.305 81.678,-16.86C82.386,-17.416 83.308,-17.693 84.445,-17.693C85.581,-17.693 86.519,-17.412 87.259,-16.851C88,-16.289 88.37,-15.536 88.37,-14.591L90.802,-14.591C90.802,-16.212 90.205,-17.505 89.012,-18.469C87.818,-19.432 86.296,-19.914 84.445,-19.914C82.619,-19.914 81.106,-19.448 79.906,-18.517C78.694,-17.572 78.087,-16.327 78.087,-14.783C78.087,-12.561 79.045,-11.049 80.96,-10.244C81.84,-9.874 82.887,-9.53 84.1,-9.21C85.3,-8.891 86.193,-8.601 86.781,-8.339C87.368,-8.077 87.872,-7.717 88.293,-7.257C88.74,-6.772 88.964,-6.134 88.964,-5.342C88.964,-4.257 88.584,-3.415 87.824,-2.815C87.065,-2.215 85.989,-1.915 84.598,-1.915C83.296,-1.915 82.227,-2.234 81.39,-2.872C80.554,-3.511 80.136,-4.359 80.136,-5.419L77.704,-5.419Z" style="fill:white;fill-rule:nonzero;stroke:white;stroke-width:0.91px;"/>
                    <path d="M93.023,-19.838L95.532,-19.838C95.532,-21.382 96.205,-22.691 97.552,-23.763C98.898,-24.836 100.542,-25.372 102.482,-25.372C104.563,-25.372 106.239,-24.887 107.509,-23.916C108.779,-22.946 109.414,-21.587 109.414,-19.838C109.414,-18.14 108.827,-16.819 107.653,-15.874C106.989,-15.402 106.306,-14.961 105.604,-14.553C104.416,-13.863 103.523,-13.251 102.923,-12.715C102.323,-12.178 101.806,-11.444 101.372,-10.512C100.925,-9.478 100.702,-8.17 100.702,-6.587L103.21,-6.587C103.261,-7.366 103.363,-8.046 103.516,-8.626C103.67,-9.207 103.845,-9.689 104.043,-10.072C104.241,-10.455 104.544,-10.828 104.953,-11.192C105.361,-11.556 105.731,-11.847 106.063,-12.064C106.395,-12.281 106.887,-12.574 107.538,-12.944C108.201,-13.327 108.709,-13.637 109.06,-13.873C109.411,-14.109 109.791,-14.425 110.199,-14.821C110.608,-15.217 110.914,-15.625 111.118,-16.046C111.323,-16.468 111.501,-16.994 111.655,-17.626C111.808,-18.258 111.897,-18.995 111.923,-19.838C111.923,-21.472 111.495,-22.898 110.64,-24.117C109.784,-25.337 108.651,-26.249 107.241,-26.856C105.83,-27.462 104.244,-27.765 102.482,-27.765C100.772,-27.765 99.195,-27.427 97.753,-26.75C96.31,-26.074 95.161,-25.126 94.306,-23.907C93.451,-22.688 93.023,-21.331 93.023,-19.838ZM100.663,0L103.172,0L103.172,-3.811L100.663,-3.811L100.663,0Z" style="fill:white;fill-rule:nonzero;stroke:white;stroke-width:0.91px;"/>
                </g>
            </g>
        </g>
    </g>
</svg>
