<?xml version="1.0" encoding="UTF-8" standalone="no"?>
<!DOCTYPE svg PUBLIC "-//W3C//DTD SVG 1.1//EN" "http://www.w3.org/Graphics/SVG/1.1/DTD/svg11.dtd">
<svg width="100%" height="100%" viewBox="0 0 1307 255" version="1.1" xmlns="http://www.w3.org/2000/svg" xmlns:xlink="http://www.w3.org/1999/xlink" xml:space="preserve" xmlns:serif="http://www.serif.com/" style="fill-rule:evenodd;clip-rule:evenodd;stroke-miterlimit:8;">
    <g transform="matrix(0.000437445,8.67947e-10,-8.67947e-10,0.000437445,16.7964,127.032)">
        <path d="M-0,0.5L504000,0.5" style="fill:none;fill-rule:nonzero;stroke:rgb(165,164,164);stroke-width:9525px;"/>
    </g>
    <g transform="matrix(8.67947e-10,0.000437445,-0.000437445,8.67947e-10,237.268,127.032)">
        <path d="M-252000,252000L252000,252000" style="fill:none;fill-rule:nonzero;stroke:rgb(165,164,164);stroke-width:9525px;"/>
    </g>
    <g transform="matrix(5.55556,0,0,5.55556,-2910.08,-1727.57)">
        <path d="M580.696,341.288L581.856,341.288L581.856,330.897L589.863,341.288L591.014,341.288L591.014,328.932L589.863,328.932L589.863,339.333L581.856,328.932L580.696,328.932L580.696,341.288Z" style="fill:white;fill-rule:nonzero;stroke:white;stroke-width:0.48px;stroke-miterlimit:10;"/>
        <path d="M592.444,337.109C592.444,338.517 592.799,339.588 593.508,340.323C594.217,341.059 595.184,341.426 596.408,341.426C597.633,341.426 598.6,341.059 599.309,340.323C600.018,339.588 600.372,338.517 600.372,337.109L600.372,332.465L599.212,332.465L599.212,337.109C599.212,338.161 598.964,338.963 598.469,339.518C597.974,340.072 597.287,340.349 596.408,340.349C595.529,340.349 594.842,340.072 594.347,339.518C593.852,338.963 593.604,338.161 593.604,337.109L593.604,332.465L592.444,332.465L592.444,337.109Z" style="fill:white;fill-rule:nonzero;stroke:white;stroke-width:0.48px;stroke-miterlimit:10;"/>
        <path d="M601.802,341.288L602.962,341.288L602.962,336.644C602.962,335.593 603.21,334.79 603.705,334.236C604.2,333.681 604.887,333.404 605.766,333.404C606.645,333.404 607.332,333.681 607.827,334.236C608.322,334.79 608.57,335.593 608.57,336.644L608.57,341.288L609.73,341.288L609.73,336.644C609.73,335.237 609.376,334.165 608.667,333.43C607.958,332.695 606.991,332.327 605.766,332.327C604.542,332.327 603.575,332.695 602.866,333.43C602.157,334.165 601.802,335.237 601.802,336.644L601.802,341.288Z" style="fill:white;fill-rule:nonzero;stroke:white;stroke-width:0.48px;stroke-miterlimit:10;"/>
        <path d="M611.072,336.799L611.072,336.954C611.072,337.534 611.193,338.095 611.433,338.635C611.679,339.198 612.013,339.686 612.435,340.099C612.857,340.513 613.355,340.84 613.929,341.082C614.48,341.311 615.051,341.426 615.643,341.426L615.722,341.426C616.612,341.426 617.428,341.199 618.17,340.746C618.911,340.292 619.469,339.686 619.844,338.928L618.561,338.928C618.227,339.37 617.814,339.717 617.321,339.97C616.829,340.223 616.302,340.349 615.739,340.349C614.773,340.349 613.945,340.009 613.257,339.328C612.568,338.647 612.224,337.83 612.224,336.877C612.224,335.912 612.567,335.092 613.252,334.417C613.938,333.742 614.767,333.404 615.739,333.404C616.314,333.404 616.844,333.528 617.33,333.775C617.817,334.022 618.227,334.366 618.561,334.809L619.8,334.809C619.425,334.056 618.871,333.454 618.139,333.004C617.406,332.553 616.601,332.327 615.722,332.327L615.643,332.327C615.051,332.321 614.48,332.436 613.929,332.672C613.355,332.913 612.857,333.24 612.435,333.654C612.013,334.068 611.679,334.556 611.433,335.119C611.198,335.659 611.078,336.219 611.072,336.799Z" style="fill:white;fill-rule:nonzero;stroke:white;stroke-width:0.48px;stroke-miterlimit:10;"/>
        <path d="M621.107,336.799L621.107,336.954C621.107,337.534 621.227,338.095 621.468,338.635C621.714,339.198 622.048,339.686 622.47,340.099C622.891,340.513 623.389,340.84 623.964,341.082C624.514,341.311 625.086,341.426 625.678,341.426L625.757,341.426C626.501,341.426 627.191,341.24 627.826,340.866C628.462,340.493 628.929,340.005 629.228,339.401L629.228,341.288L630.38,341.288L630.38,336.791C630.38,336.216 630.262,335.659 630.028,335.119C629.782,334.556 629.449,334.068 629.031,333.654C628.612,333.24 628.115,332.913 627.541,332.672C626.99,332.442 626.422,332.327 625.836,332.327L625.678,332.327C625.086,332.321 624.514,332.436 623.964,332.672C623.389,332.913 622.891,333.24 622.47,333.654C622.048,334.068 621.714,334.556 621.468,335.119C621.233,335.659 621.113,336.219 621.107,336.799ZM622.259,336.877C622.259,335.912 622.601,335.092 623.287,334.417C623.972,333.742 624.802,333.404 625.774,333.404C626.747,333.404 627.569,333.74 628.24,334.412C628.91,335.084 629.246,335.906 629.246,336.877C629.246,337.848 628.91,338.669 628.24,339.341C627.569,340.013 626.747,340.349 625.774,340.349C624.807,340.349 623.98,340.009 623.291,339.328C622.603,338.647 622.259,337.83 622.259,336.877Z" style="fill:white;fill-rule:nonzero;stroke:white;stroke-width:0.48px;stroke-miterlimit:10;"/>
        <path d="M637.154,336.799L637.154,336.954C637.154,337.534 637.274,338.095 637.515,338.635C637.761,339.198 638.095,339.686 638.517,340.099C638.938,340.513 639.436,340.84 640.011,341.082C640.561,341.311 641.133,341.426 641.725,341.426L641.804,341.426C642.694,341.426 643.51,341.199 644.251,340.746C644.993,340.292 645.551,339.686 645.926,338.928L644.642,338.928C644.309,339.37 643.895,339.717 643.403,339.97C642.911,340.223 642.384,340.349 641.821,340.349C640.854,340.349 640.027,340.009 639.338,339.328C638.65,338.647 638.306,337.83 638.306,336.877C638.306,335.912 638.648,335.092 639.334,334.417C640.019,333.742 640.849,333.404 641.821,333.404C642.395,333.404 642.926,333.528 643.412,333.775C643.898,334.022 644.309,334.366 644.642,334.809L645.882,334.809C645.507,334.056 644.953,333.454 644.221,333.004C643.488,332.553 642.683,332.327 641.804,332.327L641.725,332.327C641.133,332.321 640.561,332.436 640.011,332.672C639.436,332.913 638.938,333.24 638.517,333.654C638.095,334.068 637.761,334.556 637.515,335.119C637.28,335.659 637.16,336.219 637.154,336.799Z" style="fill:white;fill-rule:nonzero;stroke:white;stroke-width:0.48px;stroke-miterlimit:10;"/>
        <path d="M647.189,336.799L647.189,336.954C647.189,337.534 647.309,338.095 647.549,338.635C647.795,339.198 648.129,339.686 648.551,340.099C648.973,340.513 649.471,340.84 650.045,341.082C650.596,341.311 651.167,341.426 651.759,341.426L651.917,341.426C652.509,341.432 653.081,341.317 653.631,341.082C654.206,340.84 654.704,340.513 655.126,340.099C655.547,339.686 655.881,339.198 656.127,338.635C656.362,338.095 656.479,337.534 656.479,336.954L656.479,336.799C656.485,336.219 656.368,335.659 656.127,335.119C655.881,334.556 655.547,334.068 655.126,333.654C654.704,333.24 654.206,332.913 653.631,332.672C653.081,332.442 652.509,332.327 651.917,332.327L651.759,332.327C651.167,332.321 650.596,332.436 650.045,332.672C649.471,332.913 648.973,333.24 648.551,333.654C648.129,334.068 647.795,334.556 647.549,335.119C647.315,335.659 647.195,336.219 647.189,336.799ZM648.34,336.877C648.34,335.912 648.683,335.092 649.369,334.417C650.054,333.742 650.883,333.404 651.856,333.404C652.829,333.404 653.65,333.74 654.321,334.412C654.992,335.084 655.328,335.906 655.328,336.877C655.328,337.848 654.992,338.669 654.321,339.341C653.65,340.013 652.829,340.349 651.856,340.349C650.889,340.349 650.062,340.009 649.373,339.328C648.685,338.647 648.34,337.83 648.34,336.877Z" style="fill:white;fill-rule:nonzero;stroke:white;stroke-width:0.48px;stroke-miterlimit:10;"/>
        <path d="M657.821,341.288L658.982,341.288L658.982,336.644C658.982,335.593 659.229,334.79 659.724,334.236C660.219,333.681 660.906,333.404 661.785,333.404C662.664,333.404 663.351,333.681 663.846,334.236C664.341,334.79 664.589,335.593 664.589,336.644L664.589,341.288L665.749,341.288L665.749,336.644C665.749,335.237 665.395,334.165 664.686,333.43C663.977,332.695 663.01,332.327 661.785,332.327C660.561,332.327 659.594,332.695 658.885,333.43C658.176,334.165 657.821,335.237 657.821,336.644L657.821,341.288Z" style="fill:white;fill-rule:nonzero;stroke:white;stroke-width:0.48px;stroke-miterlimit:10;"/>
        <path d="M667.004,338.85C667.004,339.62 667.308,340.242 667.918,340.715C668.527,341.189 669.271,341.426 670.15,341.426C671.111,341.426 671.88,341.207 672.457,340.767C673.034,340.328 673.323,339.72 673.323,338.945C673.323,337.848 672.86,337.118 671.934,336.756C671.395,336.538 670.897,336.371 670.44,336.256C670.247,336.205 670.115,336.17 670.045,336.153C669.974,336.136 669.862,336.106 669.706,336.062C669.551,336.019 669.446,335.986 669.39,335.963C669.334,335.94 669.248,335.906 669.131,335.86C669.013,335.814 668.936,335.774 668.898,335.739C668.86,335.705 668.801,335.659 668.722,335.601C668.643,335.544 668.589,335.488 668.559,335.433C668.53,335.379 668.496,335.313 668.458,335.235C668.42,335.158 668.392,335.076 668.375,334.99C668.357,334.904 668.345,334.809 668.34,334.705C668.34,334.286 668.502,333.951 668.827,333.701C669.153,333.452 669.576,333.327 670.097,333.327C670.619,333.327 671.05,333.453 671.389,333.706C671.729,333.959 671.899,334.297 671.899,334.723L673.015,334.723C673.015,333.993 672.741,333.411 672.194,332.978C671.646,332.544 670.947,332.327 670.097,332.327C669.26,332.327 668.565,332.537 668.014,332.956C667.458,333.381 667.179,333.941 667.179,334.636C667.179,335.636 667.619,336.317 668.498,336.679C668.902,336.845 669.383,337 669.939,337.144C670.49,337.287 670.9,337.418 671.17,337.536C671.439,337.654 671.671,337.816 671.864,338.023C672.069,338.241 672.172,338.528 672.172,338.884C672.172,339.373 671.997,339.752 671.649,340.022C671.3,340.292 670.806,340.427 670.168,340.427C669.57,340.427 669.079,340.283 668.696,339.996C668.312,339.709 668.12,339.327 668.12,338.85L667.004,338.85Z" style="fill:white;fill-rule:nonzero;stroke:white;stroke-width:0.48px;stroke-miterlimit:10;"/>
        <path d="M674.305,333.542L675.65,333.542L675.65,337.127C675.65,338.402 675.95,339.396 676.551,340.108C677.151,340.82 677.991,341.231 679.069,341.34L679.069,340.246C678.336,340.137 677.775,339.818 677.386,339.289C676.996,338.761 676.801,338.029 676.801,337.092L676.801,333.542L679.069,333.542L679.069,332.465L676.801,332.465L676.801,329.673L675.65,329.673L675.65,332.465L674.305,332.465L674.305,333.542Z" style="fill:white;fill-rule:nonzero;stroke:white;stroke-width:0.48px;stroke-miterlimit:10;"/>
        <path d="M680.139,341.288L681.299,341.288L681.299,336.704C681.299,335.659 681.521,334.862 681.967,334.313C682.412,333.765 683.033,333.49 683.83,333.49C683.977,333.49 684.067,333.496 684.103,333.508L684.103,332.431C684.067,332.419 683.977,332.413 683.83,332.413C682.682,332.413 681.779,332.779 681.123,333.512C680.467,334.244 680.139,335.308 680.139,336.704L680.139,341.288Z" style="fill:white;fill-rule:nonzero;stroke:white;stroke-width:0.48px;stroke-miterlimit:10;"/>
        <path d="M685.533,337.109C685.533,338.517 685.887,339.588 686.596,340.323C687.305,341.059 688.272,341.426 689.497,341.426C690.721,341.426 691.688,341.059 692.397,340.323C693.106,339.588 693.461,338.517 693.461,337.109L693.461,332.465L692.3,332.465L692.3,337.109C692.3,338.161 692.053,338.963 691.558,339.518C691.063,340.072 690.376,340.349 689.497,340.349C688.618,340.349 687.931,340.072 687.436,339.518C686.94,338.963 686.693,338.161 686.693,337.109L686.693,332.465L685.533,332.465L685.533,337.109Z" style="fill:white;fill-rule:nonzero;stroke:white;stroke-width:0.48px;stroke-miterlimit:10;"/>
        <path d="M694.891,337.109C694.891,338.517 695.245,339.588 695.954,340.323C696.663,341.059 697.63,341.426 698.855,341.426C699.458,341.426 700.002,341.307 700.485,341.069C700.968,340.83 701.36,340.487 701.658,340.039L701.658,340.952C701.658,341.734 701.395,342.394 700.867,342.934C700.34,343.474 699.669,343.744 698.855,343.744C698.316,343.744 697.831,343.611 697.4,343.344C696.969,343.076 696.631,342.71 696.385,342.245L695.111,342.245C695.415,343.032 695.9,343.658 696.565,344.123C697.23,344.589 697.993,344.821 698.855,344.821C699.986,344.821 700.929,344.441 701.685,343.68C702.441,342.918 702.819,341.975 702.819,340.849L702.819,332.465L701.658,332.465L701.658,337.333C701.658,338.293 701.405,339.035 700.898,339.561C700.391,340.086 699.71,340.349 698.855,340.349C697.976,340.349 697.289,340.072 696.794,339.518C696.299,338.963 696.051,338.161 696.051,337.109L696.051,332.465L694.891,332.465L694.891,337.109Z" style="fill:white;fill-rule:nonzero;stroke:white;stroke-width:0.48px;stroke-miterlimit:10;"/>
        <path d="M704.161,336.799L704.161,336.954C704.161,337.534 704.281,338.095 704.521,338.635C704.767,339.198 705.101,339.686 705.523,340.099C705.945,340.513 706.443,340.84 707.017,341.082C707.568,341.311 708.139,341.426 708.731,341.426L708.81,341.426C709.554,341.426 710.244,341.24 710.88,340.866C711.516,340.493 711.983,340.005 712.282,339.401L712.282,341.288L713.433,341.288L713.433,336.791C713.433,336.216 713.316,335.659 713.082,335.119C712.836,334.556 712.503,334.068 712.084,333.654C711.665,333.24 711.169,332.913 710.595,332.672C710.044,332.442 709.475,332.327 708.889,332.327L708.731,332.327C708.139,332.321 707.568,332.436 707.017,332.672C706.443,332.913 705.945,333.24 705.523,333.654C705.101,334.068 704.767,334.556 704.521,335.119C704.287,335.659 704.167,336.219 704.161,336.799ZM705.312,336.877C705.312,335.912 705.655,335.092 706.341,334.417C707.026,333.742 707.855,333.404 708.828,333.404C709.801,333.404 710.622,333.74 711.293,334.412C711.964,335.084 712.3,335.906 712.3,336.877C712.3,337.848 711.964,338.669 711.293,339.341C710.622,340.013 709.801,340.349 708.828,340.349C707.861,340.349 707.033,340.009 706.345,339.328C705.657,338.647 705.312,337.83 705.312,336.877Z" style="fill:white;fill-rule:nonzero;stroke:white;stroke-width:0.48px;stroke-miterlimit:10;"/>
        <path d="M714.688,338.85C714.688,339.62 714.993,340.242 715.602,340.715C716.211,341.189 716.955,341.426 717.834,341.426C718.795,341.426 719.564,341.207 720.142,340.767C720.719,340.328 721.007,339.72 721.007,338.945C721.007,337.848 720.544,337.118 719.619,336.756C719.079,336.538 718.581,336.371 718.124,336.256C717.931,336.205 717.799,336.17 717.729,336.153C717.659,336.136 717.546,336.106 717.391,336.062C717.235,336.019 717.13,335.986 717.074,335.963C717.018,335.94 716.932,335.906 716.815,335.86C716.698,335.814 716.62,335.774 716.582,335.739C716.544,335.705 716.485,335.659 716.406,335.601C716.327,335.544 716.273,335.488 716.244,335.433C716.214,335.379 716.181,335.313 716.142,335.235C716.104,335.158 716.077,335.076 716.059,334.99C716.041,334.904 716.03,334.809 716.024,334.705C716.024,334.286 716.186,333.951 716.512,333.701C716.837,333.452 717.26,333.327 717.782,333.327C718.303,333.327 718.734,333.453 719.074,333.706C719.413,333.959 719.583,334.297 719.583,334.723L720.7,334.723C720.7,333.993 720.426,333.411 719.878,332.978C719.33,332.544 718.631,332.327 717.782,332.327C716.944,332.327 716.249,332.537 715.699,332.956C715.142,333.381 714.864,333.941 714.864,334.636C714.864,335.636 715.303,336.317 716.182,336.679C716.586,336.845 717.067,337 717.623,337.144C718.174,337.287 718.584,337.418 718.854,337.536C719.123,337.654 719.355,337.816 719.548,338.023C719.753,338.241 719.856,338.528 719.856,338.884C719.856,339.373 719.682,339.752 719.333,340.022C718.984,340.292 718.491,340.427 717.852,340.427C717.254,340.427 716.764,340.283 716.38,339.996C715.996,339.709 715.804,339.327 715.804,338.85L714.688,338.85Z" style="fill:white;fill-rule:nonzero;stroke:white;stroke-width:0.48px;stroke-miterlimit:10;"/>
        <path d="M726.673,338.85C726.673,339.62 726.977,340.242 727.587,340.715C728.196,341.189 728.94,341.426 729.819,341.426C730.78,341.426 731.549,341.207 732.126,340.767C732.703,340.328 732.992,339.72 732.992,338.945C732.992,337.848 732.529,337.118 731.603,336.756C731.064,336.538 730.566,336.371 730.109,336.256C729.916,336.205 729.784,336.17 729.714,336.153C729.643,336.136 729.531,336.106 729.375,336.062C729.22,336.019 729.115,335.986 729.059,335.963C729.003,335.94 728.917,335.906 728.8,335.86C728.682,335.814 728.605,335.774 728.567,335.739C728.529,335.705 728.47,335.659 728.391,335.601C728.312,335.544 728.258,335.488 728.228,335.433C728.199,335.379 728.165,335.313 728.127,335.235C728.089,335.158 728.061,335.076 728.044,334.99C728.026,334.904 728.014,334.809 728.009,334.705C728.009,334.286 728.171,333.951 728.496,333.701C728.822,333.452 729.245,333.327 729.766,333.327C730.288,333.327 730.719,333.453 731.058,333.706C731.398,333.959 731.568,334.297 731.568,334.723L732.684,334.723C732.684,333.993 732.41,333.411 731.863,332.978C731.315,332.544 730.616,332.327 729.766,332.327C728.929,332.327 728.234,332.537 727.683,332.956C727.127,333.381 726.848,333.941 726.848,334.636C726.848,335.636 727.288,336.317 728.167,336.679C728.571,336.845 729.052,337 729.608,337.144C730.159,337.287 730.569,337.418 730.839,337.536C731.108,337.654 731.34,337.816 731.533,338.023C731.738,338.241 731.841,338.528 731.841,338.884C731.841,339.373 731.666,339.752 731.318,340.022C730.969,340.292 730.475,340.427 729.837,340.427C729.239,340.427 728.748,340.283 728.365,339.996C727.981,339.709 727.789,339.327 727.789,338.85L726.673,338.85Z" style="fill:white;fill-rule:nonzero;stroke:white;stroke-width:0.48px;stroke-miterlimit:10;"/>
        <path d="M734.15,336.799L734.15,336.954C734.15,337.534 734.27,338.095 734.51,338.635C734.756,339.198 735.09,339.686 735.512,340.099C735.934,340.513 736.432,340.84 737.006,341.082C737.557,341.311 738.128,341.426 738.72,341.426L738.878,341.426C739.47,341.432 740.041,341.317 740.592,341.082C741.166,340.84 741.664,340.513 742.086,340.099C742.508,339.686 742.842,339.198 743.088,338.635C743.323,338.095 743.44,337.534 743.44,336.954L743.44,336.799C743.446,336.219 743.329,335.659 743.088,335.119C742.842,334.556 742.508,334.068 742.086,333.654C741.664,333.24 741.166,332.913 740.592,332.672C740.041,332.442 739.47,332.327 738.878,332.327L738.72,332.327C738.128,332.321 737.557,332.436 737.006,332.672C736.432,332.913 735.934,333.24 735.512,333.654C735.09,334.068 734.756,334.556 734.51,335.119C734.276,335.659 734.156,336.219 734.15,336.799ZM735.301,336.877C735.301,335.912 735.644,335.092 736.329,334.417C737.015,333.742 737.844,333.404 738.817,333.404C739.789,333.404 740.611,333.74 741.282,334.412C741.953,335.084 742.288,335.906 742.288,336.877C742.288,337.848 741.953,338.669 741.282,339.341C740.611,340.013 739.789,340.349 738.817,340.349C737.85,340.349 737.022,340.009 736.334,339.328C735.645,338.647 735.301,337.83 735.301,336.877Z" style="fill:white;fill-rule:nonzero;stroke:white;stroke-width:0.48px;stroke-miterlimit:10;"/>
        <rect x="744.782" y="328.932" width="1.16" height="12.356" style="fill:white;fill-rule:nonzero;stroke:white;stroke-width:0.48px;stroke-miterlimit:10;"/>
        <path d="M747.276,336.799L747.276,336.954C747.276,337.534 747.396,338.095 747.636,338.635C747.882,339.198 748.216,339.686 748.638,340.099C749.06,340.513 749.558,340.84 750.132,341.082C750.683,341.311 751.255,341.426 751.846,341.426L752.005,341.426C752.596,341.432 753.168,341.317 753.718,341.082C754.293,340.84 754.791,340.513 755.213,340.099C755.634,339.686 755.968,339.198 756.214,338.635C756.449,338.095 756.566,337.534 756.566,336.954L756.566,336.799C756.572,336.219 756.455,335.659 756.214,335.119C755.968,334.556 755.634,334.068 755.213,333.654C754.791,333.24 754.293,332.913 753.718,332.672C753.168,332.442 752.596,332.327 752.005,332.327L751.846,332.327C751.255,332.321 750.683,332.436 750.132,332.672C749.558,332.913 749.06,333.24 748.638,333.654C748.216,334.068 747.882,334.556 747.636,335.119C747.402,335.659 747.282,336.219 747.276,336.799ZM748.427,336.877C748.427,335.912 748.77,335.092 749.456,334.417C750.141,333.742 750.97,333.404 751.943,333.404C752.916,333.404 753.737,333.74 754.408,334.412C755.079,335.084 755.415,335.906 755.415,336.877C755.415,337.848 755.079,338.669 754.408,339.341C753.737,340.013 752.916,340.349 751.943,340.349C750.976,340.349 750.149,340.009 749.46,339.328C748.772,338.647 748.427,337.83 748.427,336.877Z" style="fill:white;fill-rule:nonzero;stroke:white;stroke-width:0.48px;stroke-miterlimit:10;"/>
    </g>
</svg>
