<svg class="desktop-only" viewBox="0 0 1118 355" version="1.1"
  xmlns="http://www.w3.org/2000/svg"
  xmlns:xlink="http://www.w3.org/1999/xlink" style="background-color:black;" width="1366px" height="50px" preserveAspectRatio="xMidYMid slice">
  <g id="P3-Website" stroke="none" stroke-width="1" fill="none" fill-rule="evenodd">
    <g id="Consulting-Template" transform="translate(-146.000000, -1897.000000)">
      <g id="Group-13" transform="translate(145.283532, 1898.000000)">
        <g id="Group-8" transform="translate(0.000000, 52.000000)">
          <rect id="Rectangle-Copy-8" fill-opacity="0.25" fill="#B8E826" transform="translate(113.500000, 113.000000) rotate(45.000000) translate(-113.500000, -113.000000) " x="34" y="33" width="159" height="160"></rect>
          <rect id="Rectangle" stroke="#FFFFFF" stroke-width="2" transform="translate(154.500000, 113.000000) rotate(45.000000) translate(-154.500000, -113.000000) " x="76" y="33" width="157" height="160"></rect>
        </g>
        <g id="Group-10" transform="translate(348.000000, 0.000000)">
          <ellipse id="Oval" fill-opacity="0.25" fill="#3E7FEC" cx="61.5" cy="176.5" rx="61.5" ry="176.5"></ellipse>
          <ellipse id="Oval-Copy-2" fill-opacity="0.25" fill="#3E7FEC" cx="140.5" cy="176.5" rx="61.5" ry="176.5"></ellipse>
          <ellipse id="Oval-Copy" stroke="#FFFFFF" stroke-width="2" cx="97.5" cy="176.5" rx="61.5" ry="176.5"></ellipse>
          <ellipse id="Oval-Copy-3" stroke="#FFFFFF" stroke-width="2" cx="176.5" cy="176.5" rx="61.5" ry="176.5"></ellipse>
          <ellipse id="Oval" fill="#FFFFFF" cx="38.5" cy="129" rx="11.5" ry="11"></ellipse>
          <circle id="Oval-Copy-6" fill="#FFFFFF" cx="219" cy="302" r="11"></circle>
        </g>
        <g id="Group-11" transform="translate(555.000000, 26.000000)">
          <polygon id="Rectangle-Copy-9" fill-opacity="0.25" fill="#DA40FF" transform="translate(139.500000, 139.000000) rotate(45.000000) translate(-139.500000, -139.000000) " points="41 41 238 41 238 237"></polygon>
          <polygon id="Rectangle" stroke="#FFFFFF" stroke-width="2" transform="translate(178.500000, 139.000000) rotate(45.000000) translate(-178.500000, -139.000000) " points="80 41 277 41 277 237"></polygon>
          <ellipse id="Oval-Copy-5" fill="#FFFFFF" cx="229.5" cy="52" rx="11.5" ry="11"></ellipse>
        </g>
        <path d="M155,164.888889 L266.468293,164.888889 C272.899325,171.732556 285.720099,175.154389 304.930615,175.154389 C333.74639,175.154389 348.549305,156 377.365079,156 C406.180854,156 406.180854,173.777778 434.996629,173.777778 C463.812404,173.777778 463.812404,156 492.628178,156 C521.443953,156 521.443953,173.777778 550.259728,173.777778 C579.075503,173.777778 579.075503,156 607.891277,156 C636.707052,156 636.707052,173.777778 665.522827,173.777778 C694.338602,173.777778 704.410189,156 733.225964,156 C762.041739,156 782.502141,176 811.317916,176 C817.997171,176 838.295011,172.296296 872.211437,164.888889 L991,164.888889 L155,164.888889 Z" id="Path-6" stroke="#FFFFFF" stroke-width="2"></path>
        <g id="Group-12" transform="translate(956.587139, 23.481908)">
          <polyline id="Path-7" stroke="#FFFFFF" stroke-width="2" points="14.4128612 118.518092 35.4128612 141.518092 14.4128612 164.518092"></polyline>
          <polygon id="Path-7-Copy" fill-opacity="0.25" fill="#FFFFFF" points="0 99.8305921 38 141.518092 0 183.205592"></polygon>
          <polygon id="Path-7-Copy-3" fill-opacity="0.25" fill="#FFFFFF" points="17 54.8519737 96 141.518092 17 228.184211"></polygon>
          <polygon id="Path-7-Copy-4" fill-opacity="0.25" fill="#FFFFFF" points="33 1.98951966e-13 162 141.518092 33 283.036184"></polygon>
          <polyline id="Path-7-Copy-2" stroke="#FFFFFF" stroke-width="2" points="40 93.7023026 84 141.518092 40 189.333882"></polyline>
          <polyline id="Path-7-Copy-5" stroke="#FFFFFF" stroke-width="2" points="60 63.4391447 131 141.518092 60 219.597039"></polyline>
        </g>
      </g>
    </g>
  </g>
</svg>
