<?xml version="1.0" standalone="no"?>
<!DOCTYPE svg PUBLIC "-//W3C//DTD SVG 20010904//EN"
 "http://www.w3.org/TR/2001/REC-SVG-20010904/DTD/svg10.dtd">
<svg version="1.0" xmlns="http://www.w3.org/2000/svg"
 width="793.000000pt" height="793.000000pt" viewBox="0 0 793.000000 793.000000"
 preserveAspectRatio="xMidYMid meet">
<metadata>
Created by potrace 1.14, written by Peter Selinger 2001-2017
</metadata>
<g transform="translate(0.000000,793.000000) scale(0.100000,-0.100000)"
fill="#000000" stroke="none">
<path d="M1465 7678 c-57 -8 -92 -31 -120 -79 -19 -33 -20 -54 -22 -569 -2
-599 -2 -595 65 -647 l37 -28 2542 0 2542 0 27 21 c15 11 37 33 48 48 21 27
21 40 24 564 2 295 0 551 -3 569 -7 39 -46 88 -88 109 -27 14 -285 16 -2517
17 -1368 1 -2509 -1 -2535 -5z"/>
<path d="M1473 4619 c-59 -8 -106 -37 -131 -82 -16 -29 -17 -79 -17 -593 l0
-561 28 -36 c58 -76 -193 -69 2586 -69 1373 1 2510 1 2526 1 17 1 50 13 73 28
74 48 72 34 72 643 0 357 -4 548 -11 567 -13 35 -46 71 -83 90 -26 13 -321 15
-2510 17 -1365 0 -2504 -2 -2533 -5z"/>
<path d="M1406 1527 c-22 -12 -49 -38 -60 -57 -20 -34 -21 -49 -22 -569 -1
-528 -1 -534 21 -574 13 -26 36 -49 62 -63 l41 -22 2519 0 c2435 0 2519 1
2555 19 20 10 47 33 60 51 l23 33 3 535 c3 598 4 584 -65 637 l-36 28 -2531 2
-2531 3 -39 -23z"/>
</g>
</svg>
